<?xml version="1.0" standalone="no"?>
<!DOCTYPE svg PUBLIC "-//W3C//DTD SVG 20010904//EN"
 "http://www.w3.org/TR/2001/REC-SVG-20010904/DTD/svg10.dtd">
<svg version="1.0" xmlns="http://www.w3.org/2000/svg"
 width="752.000000pt" height="752.000000pt" viewBox="0 0 752.000000 752.000000"
 preserveAspectRatio="xMidYMid meet">
<metadata>
Created by potrace 1.11, written by Peter Selinger 2001-2013
</metadata>
<g transform="translate(0.000000,752.000000) scale(0.100000,-0.100000)"
fill="#000000" stroke="none">
<path d="M2 7178 l3 -263 3730 -1 c2052 0 3735 1 3740 3 6 2 10 97 10 261 l0
257 -3743 3 -3742 2 2 -262z"/>
<path d="M779 6196 c-1 -11 -1 -24 -1 -27 2 -9 2 -131 1 -149 -1 -8 -1 -44 0
-80 0 -36 0 -72 0 -80 -1 -8 -1 -44 0 -80 1 -60 2 -256 2 -290 0 -8 0 -116 0
-240 0 -124 0 -232 0 -240 0 -8 0 -116 0 -240 0 -124 0 -232 0 -240 0 -8 0
-62 0 -120 0 -58 0 -112 0 -120 -1 -8 0 -44 0 -80 1 -36 1 -72 0 -80 0 -8 0
-44 0 -80 1 -36 1 -72 0 -80 0 -8 0 -44 0 -80 1 -36 1 -72 1 -80 -1 -8 -1 -98
-1 -200 0 -102 0 -192 0 -200 0 -8 0 -152 0 -320 0 -168 0 -312 0 -320 0 -8 0
-98 0 -200 1 -102 1 -192 0 -200 0 -8 0 -44 0 -80 1 -36 1 -72 0 -80 0 -8 0
-44 0 -80 1 -36 1 -72 0 -80 0 -8 0 -44 0 -80 1 -36 1 -72 0 -80 0 -8 0 -62 0
-120 0 -58 0 -112 0 -120 -2 -52 0 -134 3 -139 2 -3 246 -6 543 -6 l538 0 3
2357 2 2356 -545 0 -545 -1 -1 -21z"/>
<path d="M2495 3861 l0 -2356 468 0 467 -1 0 2357 0 2357 -468 0 -468 0 1
-2357z"/>
<path d="M4056 6212 c-2 -4 -4 -1065 -4 -2357 l1 -2350 468 -1 469 0 0 2357 0
2357 -465 0 c-256 0 -467 -3 -469 -6z"/>
<path d="M5613 3862 l2 -2357 545 0 545 0 0 2355 0 2355 -547 2 -548 1 3
-2356z"/>
<path d="M10 632 c-6 -2 -10 -99 -10 -263 l0 -259 3743 2 3742 3 0 253 c0 151
-4 256 -10 260 -9 6 -7447 10 -7465 4z"/>
</g>
</svg>
