<svg width="108" height="96" viewBox="0 0 108 96" fill="none" xmlns="http://www.w3.org/2000/svg">
<path d="M106.312 29.676V18.324L101.598 17.2935C101.39 16.7955 101.156 16.2975 100.896 15.801L103.413 12.1035L94.3819 4.0755L90.2239 6.315C89.6653 6.084 89.1051 5.8755 88.5448 5.691L87.3855 1.5H74.6145L73.4552 5.691C72.8949 5.8755 72.3347 6.084 71.7761 6.315L67.6164 4.077L58.5849 12.105L61.1027 15.8025C60.8428 16.299 60.6082 16.797 60.4007 17.295L55.6875 18.324V28.5H10.125C5.47256 28.5 1.6875 31.8645 1.6875 36V72C1.6875 76.1355 5.47256 79.5 10.125 79.5H23.625V85.5H16.875C15.0137 85.5 13.5 86.8455 13.5 88.5V91.5C13.5 93.1545 15.0137 94.5 16.875 94.5H52.3125H55.755H106.312V88.5C106.312 77.586 98.0657 68.3655 86.8236 65.4645C90.4331 63.3075 92.8125 59.6475 92.8125 55.5C92.8125 51.5865 90.6846 48.1155 87.4142 45.924L87.5863 45.7755L88.5448 42.309C89.1051 42.1245 89.6653 41.916 90.2239 41.685L94.3836 43.923L103.415 35.895L100.897 32.1975C101.157 31.701 101.392 31.203 101.599 30.705L106.312 29.676ZM10.125 31.5H67.5C70.2911 31.5 72.5625 33.519 72.5625 36V45.123C71.2918 45.7785 70.1528 46.614 69.1875 47.589V37.5C69.1875 35.8455 67.6738 34.5 65.8125 34.5H11.8125C9.95119 34.5 8.4375 35.8455 8.4375 37.5V67.5H5.0625V36C5.0625 33.519 7.33387 31.5 10.125 31.5ZM69.1875 24C69.1875 18.2115 74.4879 13.5 81 13.5C87.5121 13.5 92.8125 18.2115 92.8125 24C92.8125 29.7885 87.5121 34.5 81 34.5C78.9953 34.5 77.0445 34.0305 75.3064 33.1755C74.4491 31.311 72.7751 29.823 70.6759 29.061C69.7157 27.513 69.1875 25.7805 69.1875 24V24ZM87.5239 82.4535L81.7087 91.5H81.5333L88.5144 69.159C89.235 69.4305 89.937 69.7365 90.6204 70.068L89.5506 75.7785L85.698 79.203L87.5239 82.4535ZM76.9163 91.5L71.1011 82.4535L72.9287 79.2045L69.0761 75.78L68.0062 70.0695C68.688 69.738 69.39 69.432 70.1123 69.1605L77.0917 91.5H76.9163ZM59.0625 67.5H55.6875V43.5H59.0625V67.5ZM69.1875 66.267V63.411C69.957 64.1895 70.8294 64.8855 71.8014 65.4645C70.9104 65.694 70.038 65.9595 69.1875 66.267ZM65.8125 67.5H62.4375V40.5H52.3125V67.5H48.9375V46.5H38.8125V67.5H35.4375V52.5H25.3125V67.5H11.8125V37.5H65.8125V67.5ZM45.5625 67.5H42.1875V49.5H45.5625V67.5ZM32.0625 67.5H28.6875V55.5H32.0625V67.5ZM5.0625 72V70.5H61.5144C59.319 72.2175 57.4425 74.2395 55.9659 76.5H10.125C7.33387 76.5 5.0625 74.481 5.0625 72V72ZM27 79.5H54.3004C53.4347 81.393 52.8424 83.4045 52.5471 85.5H27V79.5ZM16.875 91.5V88.5H52.3125V91.5H16.875ZM55.6875 91.5V88.5C55.6875 81.735 59.319 75.7245 64.9249 71.8815L65.9256 77.22L68.823 79.7955L67.2756 82.5465L73.0299 91.5H64.125V79.5H60.75V91.5H55.755H55.6875ZM102.938 88.5V91.5H97.875V79.5H94.5V91.5H85.5951L91.3511 82.5465L89.8037 79.7955L92.7011 77.22L93.7018 71.8815C99.306 75.7245 102.938 81.735 102.938 88.5ZM85.3065 68.211L79.3125 87.393L73.3185 68.211C75.2372 67.7625 77.2386 67.5 79.3125 67.5C81.3864 67.5 83.3878 67.7625 85.3065 68.211ZM89.4375 55.5C89.4375 60.4635 84.8964 64.5 79.3125 64.5C73.7286 64.5 69.1875 60.4635 69.1875 55.5C69.1875 50.5365 73.7286 46.5 79.3125 46.5C84.8964 46.5 89.4375 50.5365 89.4375 55.5ZM99.1558 35.439L93.8689 40.1385L90.369 38.256L89.5286 38.6445C88.5617 39.0915 87.5812 39.456 86.6177 39.7275L85.7132 39.981L84.5404 44.226L84.3615 44.3805C82.8006 43.8165 81.0979 43.5 79.3125 43.5C78.1448 43.5 77.0192 43.6455 75.9375 43.8945V36.696C77.5575 37.206 79.2602 37.5 81 37.5C89.3751 37.5 96.1875 31.4445 96.1875 24C96.1875 16.5555 89.3751 10.5 81 10.5C72.6249 10.5 65.8125 16.5555 65.8125 24C65.8125 25.5465 66.1432 27.06 66.717 28.5H59.0625V20.676L63.0231 19.8105L63.3082 19.0065C63.6137 18.1515 64.0237 17.28 64.5266 16.419L64.9637 15.672L62.8459 12.561L68.1328 7.8615L71.6327 9.744L72.4731 9.3555C73.44 8.9085 74.4204 8.544 75.384 8.2725L76.2885 8.019L77.2605 4.5H84.7395L85.7132 8.0205L86.6177 8.274C87.5796 8.5455 88.56 8.91 89.5286 9.357L90.369 9.7455L93.8689 7.863L99.1558 12.5625L97.038 15.6735L97.4751 16.4205C97.9779 17.28 98.388 18.1515 98.6934 19.008L98.9786 19.812L102.938 20.676V27.324L98.9769 28.1895L98.6918 28.992C98.3863 29.8485 97.9763 30.72 97.4734 31.581L97.0363 32.328L99.1558 35.439Z" fill="#A5A17B"/>
<path d="M81 31.5C85.6524 31.5 89.4375 28.1355 89.4375 24C89.4375 19.8645 85.6524 16.5 81 16.5C76.3476 16.5 72.5625 19.8645 72.5625 24C72.5625 28.1355 76.3476 31.5 81 31.5ZM81 19.5C83.7911 19.5 86.0625 21.519 86.0625 24C86.0625 26.481 83.7911 28.5 81 28.5C78.2089 28.5 75.9375 26.481 75.9375 24C75.9375 21.519 78.2089 19.5 81 19.5Z" fill="#A5A17B"/>
<path d="M15.1875 40.5H18.5625V43.5H15.1875V40.5Z" fill="#A5A17B"/>
<path d="M21.9375 40.5H25.3125V43.5H21.9375V40.5Z" fill="#A5A17B"/>
<path d="M28.6875 40.5H32.0625V43.5H28.6875V40.5Z" fill="#A5A17B"/>
<path d="M15.1875 46.5H32.0625V49.5H15.1875V46.5Z" fill="#A5A17B"/>
</svg>
