<svg width="106" height="96" viewBox="0 0 106 96" fill="none" xmlns="http://www.w3.org/2000/svg">
<g clip-path="url(#clip0)">
<path d="M102.798 84.8784C108.636 75.5913 106.261 63.848 97.1666 57.0384V43.9983H99.375C100.595 43.9983 101.583 43.1028 101.583 41.9983V35.9983H103.792C105.011 35.9956 105.998 35.0981 105.995 33.9935C105.993 33.3416 105.641 32.7313 105.05 32.3583L54.2587 0.358261C53.5018 -0.117426 52.4982 -0.117426 51.7412 0.358261L0.949652 32.3583C-0.0505156 32.9906 -0.295227 34.2373 0.402676 35.1431C0.814668 35.6776 1.48855 35.9968 2.2084 35.9983H4.4168V41.9983C4.4168 43.1028 5.40559 43.9983 6.62521 43.9983H8.83361V75.9984H6.625C5.40538 75.9984 4.4166 76.8939 4.4166 77.9985V84.3584C1.77612 85.2039 0.00786719 87.4618 0 89.9983V93.9982C0 95.1028 0.988781 95.9983 2.2084 95.9983H103.792C105.011 95.9983 106 95.1028 106 93.9982V89.9983C105.993 87.9022 104.78 85.9612 102.798 84.8784ZM97.1666 39.9984H79.5V35.9984H97.1666V39.9984ZM92.75 43.9983V54.4183C89.9975 53.138 86.9985 52.3501 83.9166 52.0983V43.9983H92.75ZM53 4.43826L96.7472 31.9983H9.25285L53 4.43826ZM28.7084 75.9984H26.5V43.9983H28.7084C29.928 43.9983 30.9168 43.1028 30.9168 41.9983V35.9983H39.75V41.9983C39.75 43.1028 40.7388 43.9983 41.9584 43.9983H44.1668V75.9984H41.9584C40.7388 75.9984 39.75 76.8939 39.75 77.9985V83.9985H30.9166V77.9985C30.9166 76.8937 29.928 75.9984 28.7084 75.9984ZM44.1666 79.9983H58.3663C58.801 81.3804 59.3853 82.7203 60.1109 83.9983H44.1668V79.9983H44.1666ZM48.5834 75.9984V43.9983H57.4168V75.9984H48.5834ZM59.625 39.9984H44.1666V35.9984H61.8332V39.9984H59.625ZM61.8334 43.9983H64.0418C65.2614 43.9983 66.2502 43.1028 66.2502 41.9983V35.9983H75.0836V41.9983C75.0836 43.1028 76.0724 43.9983 77.292 43.9983H79.5V52.0983C72.3916 52.6905 65.9305 56.0844 61.8334 61.3783V43.9983ZM8.8334 35.9983H26.5V39.9982H8.8334V35.9983ZM22.0834 43.9983V75.9984H13.25V43.9983H22.0834ZM8.8334 79.9983H26.5V83.9983H8.8334V79.9983ZM4.4166 91.9983V89.9983C4.4166 88.8937 5.40538 87.9982 6.625 87.9982H62.9816C64.3751 89.5188 65.9867 90.8641 67.7738 91.9981H4.4166V91.9983ZM101.583 91.9983H95.6209C97.3411 90.9103 98.8999 89.6264 100.258 88.1784C101.058 88.4945 101.578 89.208 101.583 89.9985V91.9983ZM81.7084 91.9983C70.7318 91.9983 61.8334 83.9394 61.8334 73.9983C61.8334 64.0573 70.7318 55.9983 81.7084 55.9983C92.685 55.9983 101.583 64.0573 101.583 73.9983C101.583 83.9394 92.685 91.9983 81.7084 91.9983Z" fill="#A5A17B"/>
<path d="M78.705 24.3783L54.4134 8.37839L51.6972 11.6184L70.49 23.9984H30.9166V27.9984H77.2916C78.2872 28.0424 79.1922 27.4771 79.5 26.6184C79.7994 25.7945 79.4783 24.8898 78.705 24.3783Z" fill="#A5A17B"/>
<path d="M86.125 63.9984H83.9166V59.9984H79.5V63.9984H77.2916C74.8524 63.9984 72.875 65.7892 72.875 67.9983V71.9983C72.875 74.2074 74.8524 75.9982 77.2916 75.9982H86.125V79.9981H77.2916V77.9981H72.875V79.9981C72.875 82.2073 74.8524 83.9981 77.2916 83.9981H79.5V87.998H83.9166V83.9981H86.125C88.5642 83.9981 90.5416 82.2073 90.5416 79.9981V75.9982C90.5416 73.7891 88.5642 71.9983 86.125 71.9983H77.2916V67.9983H86.125V69.9984H90.5416V67.9983C90.5416 65.7892 88.5642 63.9984 86.125 63.9984Z" fill="#A5A17B"/>
</g>
<defs>
<clipPath id="clip0">
<rect width="106" height="96" fill="white"/>
</clipPath>
</defs>
</svg>
