<svg width="106" height="100" viewBox="0 0 106 100" fill="none" xmlns="http://www.w3.org/2000/svg">
<path d="M24.3833 33.9142C23.5759 33.1556 22.2633 33.1556 21.4561 33.9142C20.6466 34.6748 20.6466 35.9061 21.4561 36.6647C22.2635 37.4252 23.5761 37.4252 24.3833 36.6647C25.1926 35.9061 25.1926 34.6748 24.3833 33.9142Z" fill="#A5A07B"/>
<path d="M52.4202 87.0918C53.333 85.9301 53.8263 84.5305 53.8263 83.0589C53.8263 79.305 50.5759 76.2507 46.5804 76.2507H11.3863C9.44995 76.2507 7.63035 76.9588 6.26249 78.2444C4.89402 79.5298 4.14042 81.2395 4.14042 83.0589C4.14042 84.5663 4.66545 85.9603 5.55134 87.0895C2.25478 88.7181 0 91.9666 0 95.7025V97.6478C0 98.7221 0.927087 99.593 2.07031 99.593H55.8964C57.0396 99.593 57.9667 98.7221 57.9667 97.6478V95.7025C57.9667 91.9684 55.7142 88.7212 52.4202 87.0918ZM9.19013 80.995C9.77623 80.4441 10.5563 80.1409 11.3863 80.1409H46.5804C48.2928 80.1409 49.6857 81.4498 49.6857 83.0585C49.6857 83.8386 49.3627 84.5714 48.7764 85.1223C48.1903 85.6732 47.4102 85.9764 46.5802 85.9764H11.3863C9.67396 85.9764 8.28105 84.6675 8.28105 83.0587C8.28105 82.2789 8.60381 81.5459 9.19013 80.995ZM4.14042 95.7025C4.14042 92.4849 6.92665 89.8669 10.3512 89.8669H11.3863H46.5804H47.6156C51.0401 89.8669 53.8263 92.4849 53.8263 95.7025H4.14042Z" fill="#A5A07B"/>
<path d="M104.073 81.7242C103.37 80.7004 102.531 79.7951 101.58 79.0333L91.9061 71.1059C91.8307 70.9993 91.7434 70.8981 91.6434 70.8041C91.4752 70.6464 91.2848 70.5233 91.0823 70.4311L85.2322 65.637L58.1546 43.4435C59.263 42.3548 59.8733 40.931 59.8733 39.4171C59.8733 37.8574 59.2272 36.3916 58.0527 35.2883C57.5405 34.8076 56.9583 34.4296 56.3362 34.1528L58.8413 31.7991C59.5415 31.974 60.2609 32.0634 60.981 32.0634C63.1012 32.0633 65.2216 31.305 66.8356 29.7885C68.4004 28.3185 69.262 26.3645 69.262 24.2864C69.262 22.2083 68.4004 20.2543 66.8358 18.7842L49.2696 2.27963C47.7051 0.80961 45.6252 0 43.4129 0C41.2016 0 39.1224 0.80961 37.558 2.27963C35.3958 4.31124 34.684 7.19585 35.4182 9.79119L10.4243 33.275C9.73363 33.1024 9.01503 33.0114 8.28089 33.0114C6.06814 33.0114 3.98934 33.8204 2.42604 35.2891C-0.802821 38.3229 -0.802821 43.2593 2.42604 46.2933L19.992 62.7983C21.6067 64.3152 23.7273 65.0737 25.8479 65.0737C27.9688 65.0737 30.0894 64.3152 31.704 62.7983C33.8663 60.7665 34.578 57.8821 33.8439 55.2867L36.3438 52.9377C36.6442 53.5271 37.0518 54.071 37.5582 54.5466C38.7313 55.6488 40.2909 56.2559 41.9504 56.2559C43.5601 56.2559 45.0747 55.6834 46.2351 54.6431L75.0759 85.7775C75.1554 85.8942 75.2481 86.0053 75.3566 86.1072C75.3937 86.142 75.433 86.1737 75.4721 86.2052L84.0662 95.4829C84.2799 95.7198 84.5082 95.9528 84.7453 96.1756C87.1056 98.3926 90.2233 99.5957 93.4965 99.5957C94.0735 99.5957 94.6559 99.5584 95.2391 99.4825C99.1373 98.9756 102.506 96.7844 104.482 93.4701C106.646 89.8378 106.485 85.2262 104.073 81.7242ZM40.4861 5.03059C41.2685 4.29549 42.3082 3.89049 43.4131 3.89049C44.5195 3.89049 45.5598 4.29549 46.342 5.03059L63.9082 21.5354C64.6906 22.2705 65.1214 23.2476 65.1214 24.2866C65.1214 25.3255 64.6906 26.3026 63.908 27.0377C62.2942 28.5544 59.6678 28.5544 58.054 27.0377L40.4871 10.5321C40.4867 10.5317 40.4865 10.5315 40.4861 10.5312C38.8719 9.01465 38.8719 6.54711 40.4861 5.03059ZM28.7762 60.0473C27.1617 61.5642 24.5343 61.5644 22.9199 60.0473L5.35388 43.5425C3.73924 42.0254 3.73924 39.5573 5.35388 38.04C6.1348 37.3061 7.17452 36.9019 8.28089 36.9019C9.38706 36.9019 10.4262 37.3059 11.2069 38.0392L28.776 54.547C30.3904 56.0633 30.3904 58.531 28.7762 60.0473ZM37.4926 46.3567L31.7038 51.796L14.1359 35.2894L37.558 13.2819L55.1257 29.7885L49.3263 35.2377C49.3075 35.2544 49.2891 35.2708 49.2692 35.2892L37.564 46.2875C37.5398 46.3098 37.5164 46.3332 37.4926 46.3567ZM44.8849 50.4147C44.8807 50.4186 44.8768 50.4223 44.8727 50.4262L43.4148 51.796C43.0237 52.1633 42.5038 52.3656 41.9502 52.3656C41.3968 52.3656 40.8768 52.1633 40.4859 51.7958C40.0944 51.4282 39.8789 50.9391 39.8789 50.4188C39.8789 49.9095 40.0857 49.4304 40.461 49.069L52.2206 38.0198C53.0266 37.2833 54.3297 37.2925 55.1261 38.04C55.5174 38.4077 55.7329 38.8967 55.7329 39.4171C55.7329 39.937 55.518 40.4247 55.1259 40.7921L53.6765 42.154C53.6665 42.1632 53.6566 42.1725 53.6469 42.1818L44.8849 50.4147ZM49.1721 51.8882L55.2228 46.203L80.8413 67.199L71.493 75.9828L49.1721 51.8882ZM74.2177 78.9244L83.9687 69.7623L87.0963 72.3255L76.9425 81.8662L74.2177 78.9244ZM100.869 91.5696C99.5331 93.8111 97.2742 95.2905 94.6716 95.629C92.075 95.9667 89.5238 95.1631 87.6725 93.4244C87.5133 93.275 87.3609 93.1192 87.2189 92.9613C87.2123 92.9539 87.2056 92.9465 87.1988 92.9393L79.667 84.8078L90.2237 74.8886L98.8673 81.9726C98.8737 81.978 98.8803 81.9833 98.8872 81.9887C99.5342 82.5056 100.108 83.1263 100.595 83.8355C102.161 86.1086 102.271 89.217 100.869 91.5696Z" fill="#A5A07B"/>
<path d="M39.0221 20.1596C38.2134 19.3999 36.9029 19.3999 36.0943 20.1596L27.3103 28.4128C26.5019 29.1724 26.5019 30.4041 27.3103 31.1635C27.7147 31.5434 28.2444 31.7333 28.7742 31.7333C29.304 31.7333 29.8338 31.5432 30.2382 31.1635L39.0221 22.9103C39.8305 22.1509 39.8305 20.9194 39.0221 20.1596Z" fill="#A5A07B"/>
</svg>
