<svg width="108" height="96" viewBox="0 0 108 96" fill="none" xmlns="http://www.w3.org/2000/svg">
<path d="M103.897 15.7809C103.181 12.2913 101.388 9.0466 98.7098 6.39553C98.7045 6.3904 98.6996 6.38504 98.6943 6.37992C97.3227 5.00324 95.0498 3.11051 92.0115 1.91113L91.9423 1.88387C89.0099 0.633705 85.8631 0 82.5897 0C77.7487 0 73.1698 1.38903 69.3478 4.01727C69.3441 4.01983 69.3268 4.03195 69.3221 4.03498C66.0364 6.31561 63.868 9.57453 63.5996 9.9897C63.5876 10.0079 63.5758 10.0263 63.5645 10.0447C61.8407 12.854 60.9296 16.0383 60.9296 19.2537C60.9296 19.9214 60.9689 20.5973 61.047 21.2622C61.1196 21.8836 61.5379 22.4311 62.1604 22.7206C62.5546 22.904 62.9666 23.0566 63.3899 23.1773C65.0774 27.7684 68.7628 31.4401 73.4481 33.505C71.4396 34.4169 69.6358 35.6226 68.0755 37.0971C67.2822 37.8469 67.3228 39.0264 68.1665 39.7317C69.0099 40.4367 70.337 40.4005 71.1303 39.6508C71.8802 38.9421 72.7009 38.3126 73.586 37.7665C74.8553 40.9632 78.1269 43.3051 81.848 43.3051H82.1609C85.8883 43.3051 89.1567 40.7952 90.3511 37.3991C94.7788 39.8663 97.6116 44.2622 97.6116 48.9644V68.3248L78.54 79.3249C77.5684 79.8853 77.2918 81.0394 77.9225 81.9029C78.324 82.4529 78.9968 82.7523 79.6833 82.7523C80.0746 82.7523 80.4701 82.6552 80.8226 82.4518L100.85 70.9006C101.445 70.557 101.805 69.9685 101.805 69.3371V48.9644C101.805 42.3639 97.6598 36.4476 91.1083 33.4955C97.3125 30.7431 101.7 25.1879 102.13 18.7178C102.722 18.2409 103.236 17.6806 103.648 17.0504C103.898 16.6674 103.987 16.217 103.897 15.7809ZM82.1612 39.5777H81.8482C79.3389 39.5777 77.2187 37.4156 77.2187 34.8563C77.2187 34.8244 77.2179 34.7927 77.2161 34.761C78.8419 35.141 80.5424 35.3421 82.2862 35.3421C83.7765 35.3421 85.2309 35.1944 86.6298 34.9146C86.4657 37.4345 84.448 39.5777 82.1612 39.5777ZM82.2859 31.6144C75.9632 31.6144 70.3571 28.2665 67.9012 23.2481C70.8127 22.5161 73.0398 20.3205 73.5094 17.6163C74.7605 17.7591 76.0282 17.8311 77.3002 17.8311C81.5652 17.8311 85.6739 17.0364 89.3535 15.5146C90.3018 18.4094 93.3139 20.5309 96.8727 20.5309C97.1322 20.5309 97.3901 20.5192 97.6456 20.4964C96.1671 26.8288 89.8227 31.6144 82.2859 31.6144ZM96.8727 16.8034C94.8679 16.8034 93.2368 15.3541 93.2368 13.5722V12.535C93.2368 11.8568 92.8224 11.2322 92.1546 10.9039C91.4865 10.5754 90.6708 10.5957 90.025 10.9566C86.3354 13.0154 81.9352 14.1037 77.3 14.1037C75.4873 14.1037 73.6866 13.9338 71.9481 13.5988C71.3287 13.4793 70.6814 13.6156 70.1876 13.9695C69.694 14.3234 69.407 14.8567 69.407 15.4202V16.5509C69.407 18.3325 67.7762 19.7821 65.7717 19.7821C65.6343 19.7821 65.4985 19.7753 65.3644 19.762C65.3332 19.7578 65.302 19.7544 65.2708 19.7516C65.2239 19.746 65.1775 19.7392 65.1311 19.732C65.1256 19.5722 65.1227 19.4128 65.1227 19.2539C65.1227 16.6678 65.8527 14.1079 67.2339 11.8491C67.2394 11.84 67.2452 11.8312 67.2497 11.8244C67.2675 11.7958 69.1614 8.87723 71.8996 6.97541C71.9051 6.97145 71.9122 6.96679 71.9135 6.96586C74.9942 4.84738 78.686 3.72768 82.5897 3.72768C85.2304 3.72768 87.767 4.23813 90.1288 5.24484C90.1697 5.26231 90.2303 5.28678 90.3094 5.31776C92.6413 6.2385 94.4318 7.72864 95.53 8.8262C95.542 8.83878 95.5543 8.85113 95.5669 8.86371C97.5458 10.8154 98.9286 13.1666 99.5965 15.7026C98.9105 16.3932 97.9188 16.8034 96.8727 16.8034ZM64.4273 64.4907C69.1787 62.0055 72.3748 57.4113 72.3748 52.1667C72.3748 49.8066 71.7274 47.578 70.5828 45.6142C70.5417 45.5317 70.4947 45.4532 70.4423 45.3786C67.7201 40.9161 62.4021 37.8788 56.3009 37.8788C50.1983 37.8788 44.8792 40.9171 42.1578 45.3817C42.107 45.4543 42.0611 45.531 42.021 45.6111C40.8748 47.5756 40.2272 49.8052 40.2272 52.1667C40.2272 57.4104 43.4217 62.0036 48.1718 64.489C42.292 67.1909 38.5675 72.5541 38.5675 78.4895V85.2874C38.5675 85.9246 38.9337 86.5175 39.5384 86.8597L55.1751 95.7083C55.5187 95.9026 55.9098 95.9998 56.3011 95.9998C56.6901 95.9998 57.079 95.9038 57.4211 95.7116L73.0948 86.9094C73.706 86.5662 74.0751 85.9674 74.0716 85.3249L74.0347 78.4806C74.0027 72.5312 70.2822 67.1858 64.4273 64.4907ZM56.3009 41.6065C59.9506 41.6065 63.2206 43.0766 65.4018 45.3858C62.5764 46.1055 59.4778 46.4809 56.3014 46.4809C53.1239 46.4809 50.0251 46.1055 47.1999 45.3858C49.3811 43.0766 52.6513 41.6065 56.3009 41.6065ZM44.4206 52.1667C44.4206 50.9559 44.6509 49.7917 45.075 48.7077C48.535 49.6927 52.3746 50.2085 56.3014 50.2085C60.2272 50.2085 64.0662 49.6927 67.5267 48.7077C67.9508 49.7917 68.1812 50.9559 68.1812 52.1667C68.1812 57.9896 62.8518 62.727 56.3009 62.727C49.7501 62.727 44.4206 57.9896 44.4206 52.1667ZM60.0227 66.0682C59.7606 67.8314 58.0208 69.0233 56.4466 69.0233H56.1913C54.5241 69.0233 52.6726 67.7698 52.4328 66.0365C53.672 66.3095 54.9678 66.4547 56.3006 66.4547C57.5812 66.4547 58.8278 66.3207 60.0227 66.0682ZM56.3053 91.9291L42.7609 84.2646V78.4897C42.7609 74.3914 45.0905 70.6492 48.8614 68.4439C50.1716 71.1015 53.2602 72.7509 56.1913 72.7509H56.4466C59.6109 72.7509 62.4081 70.9204 63.6164 68.3772C67.4418 70.5696 69.8185 74.341 69.8408 78.4986L69.8723 84.31L56.3053 91.9291ZM41.2441 41.8995C41.8554 41.0252 41.5534 39.8759 40.57 39.3326C39.9315 38.9798 39.2695 38.66 38.5901 38.3753C41.1812 37.1978 43.4733 35.5112 45.2928 33.4016C46.0422 33.6327 46.8466 33.7585 47.6832 33.7585C51.7125 33.7585 54.9906 30.8447 54.9906 27.2631V22.6312C54.9906 16.7433 52.4603 11.167 47.8659 6.92975C43.2846 2.70489 37.1341 0.250686 30.5475 0.0191043C30.547 0.0191043 30.5462 0.0191043 30.5456 0.0191043C29.9732 -0.000465959 29.4404 -0.00512555 28.9164 0.00629045C22.3591 0.14701 16.1738 2.50616 11.4997 6.64901C6.70771 10.8962 4.0686 16.5723 4.0686 22.6314V27.2633C4.0686 30.8449 7.34672 33.7588 11.3763 33.7588C12.2129 33.7588 13.017 33.6332 13.7661 33.4021C15.7704 35.7258 18.3485 37.5363 21.268 38.7184C14.798 41.743 10.7962 47.5978 10.7962 54.0811V69.3376C10.7962 69.9689 11.1558 70.5574 11.7519 70.9011L30.7739 81.8723C31.1265 82.0757 31.522 82.1729 31.9133 82.1729C32.5997 82.1729 33.2728 81.8733 33.6741 81.3234C34.3045 80.4598 34.0279 79.3056 33.0566 78.7455L14.9899 68.3253V54.0811C14.9899 49.7687 17.2489 45.8092 21.0334 43.2541C22.3314 46.602 25.6643 49.1175 29.3494 49.1175H29.6624C33.6647 49.1175 36.8592 45.8972 37.9841 42.2996C38.1091 42.3643 38.2331 42.4307 38.356 42.4985C39.34 43.0423 40.6329 42.7737 41.2441 41.8995ZM16.5622 15.8573C15.2066 17.9038 14.4901 20.2462 14.4901 22.6314V27.2633C14.4901 28.1463 14.0225 28.934 13.2957 29.4412C13.2333 29.4773 13.1738 29.516 13.1172 29.557C12.62 29.8564 12.0205 30.0311 11.376 30.0311C9.65898 30.0311 8.26224 28.7895 8.26224 27.2633V22.6312C8.26224 12.2839 17.3792 3.98279 29.0168 3.73257C29.4519 3.72302 29.8988 3.72721 30.3831 3.74375C41.8299 4.14704 50.7967 12.4432 50.7967 22.6312V27.2631C50.7967 28.7893 49.3997 30.0309 47.6827 30.0309C47.0382 30.0309 46.4385 29.8559 45.941 29.5565C45.8847 29.5157 45.8254 29.4773 45.7633 29.4412C45.0365 28.934 44.5686 28.146 44.5686 27.2631V22.6312C44.5686 16.0523 39.0551 10.3671 31.7435 9.40702C31.1687 9.33107 30.5844 9.47132 30.1302 9.7933C29.676 10.1153 29.3921 10.5901 29.3465 11.105C29.2315 12.4078 28.9657 13.6925 28.5545 14.9391H18.3689C17.6264 14.9391 16.9389 15.2884 16.5622 15.8573ZM29.6624 45.3898H29.3494C26.979 45.3898 24.6523 42.8319 24.6523 40.2256C24.6523 40.0648 24.6289 39.9066 24.5844 39.755C26.1769 40.1149 27.8352 40.3025 29.5297 40.3025C31.1338 40.3025 32.7059 40.1343 34.2201 39.8111C34.0775 42.5214 31.7699 45.3898 29.6624 45.3898ZM29.5297 36.5748C24.6426 36.5748 20.1321 34.597 17.1687 31.2186C18.1181 30.1224 18.6834 28.7502 18.6834 27.2631V22.6312C18.6834 21.2582 19.0121 19.9058 19.6406 18.6668H30.0678C30.9456 18.6668 31.7303 18.181 32.0346 17.449C32.5589 16.1886 32.9544 14.8883 33.2175 13.5641C37.4156 14.9224 40.3753 18.5366 40.3753 22.6312V27.2631C40.3753 28.7502 40.9406 30.1224 41.8902 31.2186C38.9272 34.5973 34.4169 36.5748 29.5297 36.5748Z" fill="#A5A17B"/>
</svg>
