<svg width="106" height="96" viewBox="0 0 106 96" fill="none" xmlns="http://www.w3.org/2000/svg">
<g clip-path="url(#clip0)">
<path d="M43.8233 21.8162H41.9278V19.1686C41.9278 18.1325 41.0002 17.2927 39.8564 17.2927C38.7125 17.2927 37.785 18.1325 37.785 19.1686V21.8162H35.8894C31.4831 21.8162 27.8982 25.063 27.8982 29.0538V30.8273C27.8982 34.8181 31.4831 38.0649 35.8894 38.0649H43.8235C45.9456 38.0649 47.6722 39.6285 47.6722 41.5505V42.9421C47.6722 44.864 45.9456 46.4277 43.8235 46.4277H35.8892C33.7673 46.4277 32.0408 44.864 32.0408 42.9421C32.0408 41.906 31.1132 41.0661 29.9693 41.0661C28.8255 41.0661 27.8979 41.906 27.8979 42.9421C27.8979 46.9329 31.4829 50.1796 35.8892 50.1796H37.7847V52.8274C37.7847 53.8635 38.7123 54.7034 39.8561 54.7034C41 54.7034 41.9275 53.8635 41.9275 52.8274V50.1796H43.8231C48.2296 50.1796 51.8145 46.9329 51.8145 42.9421V41.5505C51.8145 37.5597 48.2296 34.3129 43.8231 34.3129H35.8892C33.7673 34.3129 32.0408 32.7493 32.0408 30.8273V29.0538C32.0408 27.1318 33.7673 25.5682 35.8892 25.5682H43.8233C45.9454 25.5682 47.672 27.1318 47.672 29.0538V29.2224C47.672 30.2585 48.5995 31.0984 49.7434 31.0984C50.8872 31.0984 51.8148 30.2585 51.8148 29.2224V29.0538C51.8148 25.0628 48.23 21.8162 43.8233 21.8162Z" fill="#A5A17B"/>
<path d="M103.362 67.4967L82.9803 49.0375C82.6259 48.7165 82.155 48.5229 81.655 48.4924L77.25 48.2235C78.8112 44.3183 79.6031 40.2181 79.6031 35.9985C79.6031 16.1489 61.7731 0 39.8573 0C21.6455 0 5.80176 11.1524 1.32878 27.1208C1.04769 28.125 1.71841 29.1457 2.82723 29.4004C3.93605 29.6556 5.0631 29.0478 5.3444 28.0434C9.3509 13.741 23.5431 3.75197 39.8573 3.75197C59.4887 3.75197 75.4603 18.2177 75.4603 35.9983C75.4603 40.145 74.6102 44.1618 72.9309 47.9583L67.3669 47.6193C69.1935 44.0872 70.2163 40.1487 70.2163 35.9977C70.2163 20.8364 56.5969 8.50178 39.8562 8.50178C23.1156 8.50178 9.4959 20.8364 9.4959 35.9977C9.4959 51.1591 23.1154 63.4937 39.856 63.4937C44.3516 63.4937 48.6216 62.6031 52.4636 61.0082L52.8377 66.0338C48.7063 67.5 44.3464 68.2426 39.857 68.2426C23.5369 68.2426 9.34324 58.2497 5.34108 43.9418C5.0602 42.9374 3.93295 42.3297 2.82454 42.5839C1.71551 42.8383 1.04438 43.8589 1.32547 44.8631C5.79369 60.8378 21.6387 71.9947 39.8573 71.9947C44.4282 71.9947 48.8792 71.3028 53.1283 69.9383L53.4345 74.0504C53.4682 74.5035 53.682 74.9299 54.0364 75.2509L74.4186 93.7102C76.1045 95.2369 78.3186 96.0002 80.5331 96.0002C82.7477 96.0002 84.9618 95.2369 86.6477 93.7102L103.362 78.5723C106.734 75.5186 106.734 70.5502 103.362 67.4967ZM13.6387 35.9977C13.6387 22.9052 25.3997 12.2538 39.856 12.2538C54.3123 12.2538 66.0735 22.9052 66.0735 35.9977C66.0735 41.7765 63.7811 47.079 59.9782 51.2005L57.8117 49.2384C57.0027 48.5059 55.6915 48.5059 54.8822 49.2384C54.0733 49.971 54.0733 51.1589 54.8822 51.8915L57.0807 53.8826C52.4704 57.5292 46.4433 59.7415 39.856 59.7415C25.3999 59.7417 13.6387 49.0902 13.6387 35.9977ZM100.433 75.9189L83.7181 91.0568C81.9618 92.6474 79.1045 92.6474 77.3482 91.0568L57.5155 73.0954L56.5258 59.7879L60.0638 56.5837L61.4783 57.8648C61.8829 58.2312 62.4129 58.4143 62.943 58.4143C63.4731 58.4143 64.0032 58.231 64.4077 57.8648C65.2166 57.1322 65.2166 55.9443 64.4077 55.2118L62.9931 53.9307L65.9074 51.2913L80.6007 52.1882L100.433 70.1497C102.189 71.7405 102.189 74.3284 100.433 75.9189Z" fill="#A5A17B"/>
<path d="M78.3397 69.8454C81.5083 66.9757 81.5083 62.3062 78.3397 59.4365C75.2073 56.6 69.9789 56.5992 66.8467 59.4365L65.7404 60.4383C62.5717 63.308 62.5717 67.9775 65.7404 70.847C68.8787 73.678 74.0966 73.6884 77.2333 70.847L78.3397 69.8454ZM75.4103 67.1924L74.3039 68.1941C72.7634 69.5893 70.2117 69.5779 68.6697 68.1941C67.1164 66.7872 67.1164 64.4981 68.6695 63.0913L69.7759 62.0895C71.3114 60.699 73.8745 60.699 75.4101 62.0895C76.9634 63.4965 76.9634 65.7856 75.4103 67.1924Z" fill="#A5A17B"/>
<path d="M83.2115 71.2103C83.6399 72.1567 84.8769 72.6141 85.917 72.2252C86.9605 71.8348 87.4695 70.7197 87.0376 69.7752C86.6057 68.8308 85.3747 68.3693 84.3321 68.7603C83.2919 69.1505 82.778 70.268 83.2115 71.2103Z" fill="#A5A17B"/>
<path d="M86.7287 81.5377C86.3894 80.8001 85.5443 80.3256 84.6631 80.3851C83.7981 80.4434 83.0536 81.0006 82.8208 81.7559C82.3204 83.379 84.3665 84.7353 85.9269 83.8378C86.7675 83.3544 87.1053 82.3697 86.7287 81.5377Z" fill="#A5A17B"/>
<path d="M91.5587 74.444H78.2617C77.1179 74.444 76.1903 75.2838 76.1903 76.32C76.1903 77.3561 77.1179 78.1959 78.2617 78.1959H91.5587C92.7025 78.1959 93.6301 77.3561 93.6301 76.32C93.6301 75.2838 92.7027 74.444 91.5587 74.444Z" fill="#A5A17B"/>
<path d="M1.77648 37.8384C3.59434 38.1727 4.93205 36.2324 3.85016 34.8899C2.72663 33.4955 0.201594 34.1832 0.11128 35.9063C0.063224 36.8254 0.782829 37.6557 1.77648 37.8384Z" fill="#A5A17B"/>
</g>
<defs>
<clipPath id="clip0">
<rect width="106" height="96" fill="white"/>
</clipPath>
</defs>
</svg>
