<svg width="106" height="96" viewBox="0 0 106 96" fill="none" xmlns="http://www.w3.org/2000/svg">
<g clip-path="url(#clip0)">
<path d="M18.55 94.4V89.9203L54.2827 95.8047C55.3118 95.9727 56.3737 95.8609 57.3338 95.4852L85.0829 84.6047C89.5591 83.1984 92.0047 78.8367 90.6184 74.7336C89.2322 70.6305 84.5101 68.2555 79.9313 69.3586C79.8804 69.3688 79.8304 69.3828 79.7829 69.4L58.3302 76.4016C57.8497 76.5578 57.3183 76.5195 56.8706 76.2961L48.334 72H54.7666C59.1574 72 62.7166 68.7766 62.7166 64.8C62.7166 60.8234 59.1574 57.6 54.7666 57.6H41.5166C41.3139 57.6 41.1129 57.632 40.9231 57.6945L16.4797 65.6H2.64997C1.67433 65.6 0.883301 66.3164 0.883301 67.2V94.4C0.883301 95.2836 1.67433 96 2.64997 96H16.7833C17.7589 96 18.55 95.2836 18.55 94.4ZM18.55 68.3203L41.822 60.8H54.7666C57.2062 60.8 59.1833 62.5906 59.1833 64.8C59.1833 67.0094 57.2062 68.8 54.7666 68.8H41.5166C40.7118 68.8 40.0088 69.293 39.806 69.9984C39.6042 70.7039 39.9544 71.4445 40.6583 71.7984L55.1557 79.093C56.4928 79.7672 58.0869 79.8844 59.5258 79.4125L80.9026 72.4367C82.4778 72.0828 84.1461 72.4055 85.4245 73.3109C86.7029 74.2172 87.45 75.6055 87.45 77.075C87.4336 79.1438 85.9654 80.9742 83.7985 81.6273L55.9346 92.5469C55.6129 92.6734 55.2575 92.7102 54.9133 92.6531L18.55 86.6641V68.3203ZM15.0166 88V92.8H4.41663V68.8H15.0166V88Z" fill="#A5A17B"/>
<path d="M55.65 25.6H41.5167C40.541 25.6 39.75 26.3164 39.75 27.2V40C39.75 40.8836 40.541 41.6 41.5167 41.6H55.65C56.6256 41.6 57.4167 40.8836 57.4167 40V27.2C57.4167 26.3164 56.6256 25.6 55.65 25.6ZM46.8167 38.4H43.2833V35.2H46.8167V38.4ZM46.8167 32H43.2833V28.8H46.8167V32ZM53.8833 38.4H50.35V35.2H53.8833V38.4ZM53.8833 32H50.35V28.8H53.8833V32Z" fill="#A5A17B"/>
<path d="M105.117 49.6C105.117 46.9492 102.744 44.8 99.8167 44.8H96.2833V20.8C96.2833 20.7805 96.273 20.7664 96.2712 20.7469C96.2678 20.5602 96.2264 20.375 96.1487 20.2016C96.1349 20.1664 96.1082 20.1391 96.091 20.1055C96.047 20.0125 95.9926 19.9234 95.9296 19.8398L80.0296 0.639844C80.0193 0.627344 80.0003 0.624219 79.9891 0.610938C79.6587 0.228125 79.1532 0.003125 78.6166 0H50.35C49.7936 0 49.27 0.2375 48.937 0.639844L45.4916 4.8H36.2166C35.241 4.8 34.45 5.51641 34.45 6.4V18.1344L33.037 19.8398C32.974 19.9234 32.9197 20.0125 32.8757 20.1055C32.8584 20.1391 32.8317 20.1664 32.8179 20.2016C32.7402 20.375 32.6988 20.5602 32.6954 20.7469C32.6954 20.7664 32.6833 20.7805 32.6833 20.8V44.8H29.15C26.2231 44.8 23.85 46.9492 23.85 49.6C23.85 52.2508 26.2231 54.4 29.15 54.4H99.8167C102.744 54.4 105.117 52.2508 105.117 49.6ZM83.9166 28.8H73.3166C72.341 28.8 71.55 29.5164 71.55 30.4V44.8H64.4833V22.4H92.75V44.8H85.6833V30.4C85.6833 29.5164 84.8923 28.8 83.9166 28.8ZM82.15 32V44.8H75.0833V32H82.15ZM90.9833 19.2H66.25L78.6166 4.26719L90.9833 19.2ZM51.2333 3.2H75.0833L61.8333 19.2H38.425L51.2333 3.2ZM37.9833 8H42.8416L37.9833 13.8672V8ZM36.2166 22.4H60.95V44.8H36.2166V22.4ZM27.3833 49.6C27.3833 48.7164 28.1743 48 29.15 48H99.8167C100.792 48 101.583 48.7164 101.583 49.6C101.583 50.4836 100.792 51.2 99.8167 51.2H29.15C28.1743 51.2 27.3833 50.4836 27.3833 49.6Z" fill="#A5A17B"/>
<path d="M66.25 57.6H69.7833V60.8H66.25V57.6Z" fill="#A5A17B"/>
<path d="M66.25 64H69.7833V67.2H66.25V64Z" fill="#A5A17B"/>
<path d="M73.3167 57.6H76.85V60.8H73.3167V57.6Z" fill="#A5A17B"/>
<path d="M73.3167 64H76.85V67.2H73.3167V64Z" fill="#A5A17B"/>
<path d="M80.3833 57.6H83.9166V60.8H80.3833V57.6Z" fill="#A5A17B"/>
<path d="M80.3833 64H83.9166V67.2H80.3833V64Z" fill="#A5A17B"/>
<path d="M87.45 57.6H90.9834V60.8H87.45V57.6Z" fill="#A5A17B"/>
</g>
<defs>
<clipPath id="clip0">
<rect width="106" height="96" fill="white"/>
</clipPath>
</defs>
</svg>
