<svg width="108" height="96" viewBox="0 0 108 96" fill="none" xmlns="http://www.w3.org/2000/svg">
<path d="M83.6129 7.74194V23.5107C83.0659 23.3373 82.4841 23.2258 81.871 23.2258C78.9898 23.2258 76.6451 25.3099 76.6451 27.871C76.6451 30.432 78.9898 32.5161 81.871 32.5161C84.7521 32.5161 87.0968 30.432 87.0968 27.871V10.8387H92.3226V7.74194H83.6129ZM81.871 29.4194C80.9094 29.4194 80.129 28.7241 80.129 27.871C80.129 27.0178 80.9094 26.3226 81.871 26.3226C82.8325 26.3226 83.6129 27.0178 83.6129 27.871C83.6129 28.7241 82.8325 29.4194 81.871 29.4194Z" fill="#A5A17B"/>
<path d="M95.8064 48H69.6774V51.0968H95.8064C100.609 51.0968 104.516 54.5698 104.516 58.8387C104.516 63.1076 100.609 66.5806 95.8064 66.5806H83.3533L88.1854 63.1448L86.008 60.7262L75.5982 68.129L86.008 75.5319L88.1854 73.1133L83.3533 69.6774H95.8064C102.529 69.6774 108 64.8155 108 58.8387C108 52.8619 102.529 48 95.8064 48Z" fill="#A5A17B"/>
<path d="M3.48387 58.8388C3.48387 54.5699 7.39103 51.0969 12.1935 51.0969H33.3563L28.5242 54.5327L30.7016 56.9513L41.1114 49.5485L30.7016 42.1456L28.5242 44.5642L33.3563 48.0001H12.1935C5.47142 48.0001 0 52.862 0 58.8388C0 64.8156 5.47142 69.6775 12.1935 69.6775H31.3548V66.5807H12.1935C7.39103 66.5807 3.48387 63.1077 3.48387 58.8388Z" fill="#A5A17B"/>
<path d="M66.1936 79.697C70.6338 76.4438 73.1613 71.7073 73.1613 66.5806C73.1613 57.1896 64.5649 49.5483 54 49.5483C43.4352 49.5483 34.8387 57.1896 34.8387 66.5806C34.8387 71.7073 37.3663 76.4438 41.8065 79.697V80.5161H38.3226V83.6129H41.8065V86.7096H38.3226V89.8064H41.8065V96H66.1936V89.8064H69.6775V86.7096H66.1936V83.6129H69.6775V80.5161H66.1936V79.697ZM62.7097 86.7096H59.2258V89.8064H62.7097V92.9032H45.2904V89.8064H55.742V86.7096H45.2904V83.6129H62.7097V86.7096ZM63.403 77.7104L62.7097 78.1734V80.5161H55.742V72.5543C58.7398 71.8621 60.9678 69.4575 60.9678 66.5806C60.9678 63.1649 57.8427 60.3871 54 60.3871C50.1573 60.3871 47.0323 63.1649 47.0323 66.5806C47.0323 69.4575 49.2602 71.8621 52.2581 72.5543V80.5161H45.2904V78.1734L44.5971 77.7089C40.608 75.0425 38.3226 70.9858 38.3226 66.5806C38.3226 58.8975 45.3548 52.6451 54 52.6451C62.6453 52.6451 69.6775 58.8975 69.6775 66.5806C69.6775 70.9858 67.392 75.0425 63.403 77.7104ZM54 69.6774C52.0787 69.6774 50.5162 68.2885 50.5162 66.5806C50.5162 64.8727 52.0787 63.4838 54 63.4838C55.9214 63.4838 57.4839 64.8727 57.4839 66.5806C57.4839 68.2885 55.9214 69.6774 54 69.6774Z" fill="#A5A17B"/>
<path d="M22.6451 18.5807C20.7238 18.5807 19.1612 17.1918 19.1612 15.4839C19.1612 13.7761 20.7238 12.3872 22.6451 12.3872C24.5665 12.3872 26.129 13.7761 26.129 15.4839H29.6129C29.6129 12.607 27.3849 10.2024 24.387 9.51025V6.1936H20.9032V9.51025C17.9053 10.2024 15.6774 12.607 15.6774 15.4839C15.6774 18.8997 18.8024 21.6775 22.6451 21.6775C24.5665 21.6775 26.129 23.0664 26.129 24.7742C26.129 26.4821 24.5665 27.871 22.6451 27.871C20.7238 27.871 19.1612 26.4821 19.1612 24.7742H15.6774C15.6774 27.6512 17.9053 30.0558 20.9032 30.7479V34.0646H24.387V30.7479C27.3849 30.0558 29.6129 27.6512 29.6129 24.7742C29.6129 21.3585 26.4878 18.5807 22.6451 18.5807Z" fill="#A5A17B"/>
<path d="M38.3226 18.5807H34.8387V21.6775H38.3226V18.5807Z" fill="#A5A17B"/>
<path d="M10.4516 18.5807H6.96777V21.6775H10.4516V18.5807Z" fill="#A5A17B"/>
<path d="M22.6452 0C10.159 0 0 9.03019 0 20.129C0 31.2279 10.159 40.2581 22.6452 40.2581C28.0765 40.2581 33.3302 38.5223 37.4359 35.3698L35.1592 33.0255C31.6841 35.6934 27.2421 37.1613 22.6452 37.1613C12.0803 37.1613 3.48387 29.52 3.48387 20.129C3.48387 10.7381 12.0803 3.09677 22.6452 3.09677C33.21 3.09677 41.8065 10.7381 41.8065 20.129C41.8065 24.0557 40.345 27.7455 37.5823 30.7974L40.2979 32.7391C43.517 29.1824 45.2903 24.7045 45.2903 20.129C45.2903 9.03019 35.1314 0 22.6452 0Z" fill="#A5A17B"/>
<path d="M85.3549 0C72.8687 0 62.7097 9.03019 62.7097 20.129C62.7097 31.2279 72.8687 40.2581 85.3549 40.2581C90.7862 40.2581 96.0399 38.5223 100.146 35.3698L97.8689 33.0255C94.3938 35.6934 89.9518 37.1613 85.3549 37.1613C74.79 37.1613 66.1936 29.52 66.1936 20.129C66.1936 10.7381 74.79 3.09677 85.3549 3.09677C95.9197 3.09677 104.516 10.7381 104.516 20.129C104.516 24.0557 103.055 27.7455 100.292 30.7974L103.008 32.7391C106.227 29.1824 108 24.7045 108 20.129C108 9.03019 97.8411 0 85.3549 0Z" fill="#A5A17B"/>
</svg>
