<svg width="108" height="96" viewBox="0 0 108 96" fill="none" xmlns="http://www.w3.org/2000/svg">
<path d="M104.836 50.8125H3.16406C1.41666 50.8125 0 52.0717 0 53.625C0 55.1783 1.41666 56.4375 3.16406 56.4375H48.0878L26.055 85.8148C24.6563 87.6791 26.1617 90.1875 28.6875 90.1875H79.3125C81.8338 90.1875 83.3465 87.6829 81.945 85.8148L59.9122 56.4375H104.836C106.583 56.4375 108 55.1783 108 53.625C108 52.0717 106.583 50.8125 104.836 50.8125ZM73.4006 84.5625H34.5994L54 58.6954L73.4006 84.5625Z" fill="#A5A17B"/>
<path d="M85.8516 45.1875C98.0642 45.1875 108 36.3557 108 25.5C108 14.6443 98.0642 5.8125 85.8516 5.8125C73.6389 5.8125 63.7031 14.6443 63.7031 25.5C63.7031 36.3557 73.6389 45.1875 85.8516 45.1875ZM85.8516 11.4375C94.5749 11.4375 101.672 17.7459 101.672 25.5C101.672 33.2541 94.5749 39.5625 85.8516 39.5625C77.1282 39.5625 70.0312 33.2541 70.0312 25.5C70.0312 17.7459 77.1282 11.4375 85.8516 11.4375Z" fill="#A5A17B"/>
<path d="M85.8516 28.3125H92.1797C93.9271 28.3125 95.3438 27.0533 95.3438 25.5C95.3438 23.9467 93.9271 22.6875 92.1797 22.6875H89.0156V19.875C89.0156 18.3217 87.599 17.0625 85.8516 17.0625C84.1042 17.0625 82.6875 18.3217 82.6875 19.875V25.5C82.6875 27.0533 84.1042 28.3125 85.8516 28.3125Z" fill="#A5A17B"/>
<path d="M31.8516 14.25C31.8516 9.59756 27.5934 5.8125 22.3594 5.8125C17.1254 5.8125 12.8672 9.59756 12.8672 14.25C12.8672 18.9024 17.1254 22.6875 22.3594 22.6875C27.5934 22.6875 31.8516 18.9024 31.8516 14.25ZM22.3594 17.0625C20.6147 17.0625 19.1953 15.8008 19.1953 14.25C19.1953 12.6992 20.6147 11.4375 22.3594 11.4375C24.104 11.4375 25.5234 12.6992 25.5234 14.25C25.5234 15.8008 24.104 17.0625 22.3594 17.0625Z" fill="#A5A17B"/>
<path d="M9.70312 45.1875H35.0156C36.763 45.1875 38.1797 43.9282 38.1797 42.375V36.75C38.1797 28.9959 31.0827 22.6875 22.3594 22.6875C13.6361 22.6875 6.53906 28.9959 6.53906 36.75V42.375C6.53906 43.9282 7.95572 45.1875 9.70312 45.1875ZM12.8672 36.75C12.8672 32.0976 17.1254 28.3125 22.3594 28.3125C27.5934 28.3125 31.8516 32.0976 31.8516 36.75V39.5625H12.8672V36.75Z" fill="#A5A17B"/>
</svg>
