<svg width="108" height="96" viewBox="0 0 108 96" fill="none" xmlns="http://www.w3.org/2000/svg">
<g clip-path="url(#clip0)">
<path d="M53.8483 60.695C54.7223 60.695 55.4304 60.0654 55.4304 59.2887V58.0143C59.2866 57.466 61.6362 55.0111 62.017 52.5904C62.4507 49.8328 60.4516 47.4613 56.9241 46.5486C54.6081 45.9493 52.0391 45.2207 50.5419 44.3612C49.7186 43.8885 49.7667 43.1068 49.8255 42.7925C49.9719 42.0116 50.6859 41.0544 52.2507 40.7094C52.8145 40.5851 53.3434 40.5211 53.8348 40.4996C53.8393 40.4996 53.8437 40.5001 53.8481 40.5001C53.903 40.5001 53.957 40.4977 54.0103 40.4928C56.3121 40.4377 57.733 41.3225 57.8258 41.3822C58.5211 41.8438 59.5062 41.721 60.0318 41.1058C60.5602 40.4872 60.4246 39.6052 59.7287 39.1353C59.6344 39.0716 58.0344 38.0174 55.43 37.7442V36.7117C55.43 35.935 54.7218 35.3054 53.8479 35.3054C52.974 35.3054 52.2659 35.935 52.2659 36.7117V37.8341C52.0115 37.8742 51.7529 37.9214 51.4886 37.9798C48.9737 38.5344 47.0958 40.242 46.704 42.3303C46.3724 44.0991 47.1848 45.7824 48.8246 46.7239C50.3071 47.5753 52.3973 48.3068 56.039 49.2493C58.0589 49.7721 59.0955 50.848 58.8826 52.2014C58.6409 53.7383 56.8306 55.3019 53.8389 55.3165C51.3525 55.3298 50.3714 55.2475 48.2585 54.2356C47.4887 53.8669 46.5296 54.1227 46.1153 54.8065C45.7008 55.4901 45.9883 56.3431 46.7576 56.7115C48.9242 57.749 50.339 58.0413 52.2657 58.1103V59.2891C52.2663 60.0654 52.9744 60.695 53.8483 60.695V60.695Z" fill="#A5A17B"/>
<path d="M106.687 58.9026C106.682 58.1514 106.015 57.5359 105.17 57.5047L92.8908 57.0506L83.4756 55.9751C79.3296 55.5017 75.1049 55.6395 71.0091 56.3621C71.3521 55.8114 71.6653 55.2454 71.9404 54.6609C72.2777 53.9445 71.8975 53.1206 71.0915 52.821C70.2849 52.5213 69.3587 52.859 69.0216 53.5755C68.3519 54.9988 67.4345 56.3059 66.2984 57.4695C65.9045 57.5865 65.5126 57.708 65.1232 57.8364L63.873 58.2484C62.0975 58.8334 60.7713 60.0034 60.071 61.4224C58.1416 62.1124 56.1037 62.4653 54.0008 62.4653C45.0277 62.4653 37.7275 55.9762 37.7275 48.0001C37.7275 44.5038 39.1402 41.1557 41.7069 38.5285C42.099 38.412 42.4899 38.292 42.8776 38.1642L44.128 37.7518C45.9018 37.1674 47.2274 35.9985 47.9279 34.5804C49.8578 33.8884 51.8965 33.5344 54.0006 33.5344C62.9742 33.5344 70.2746 40.0236 70.2746 48.0001C70.2746 48.2465 70.2682 48.482 70.2554 48.7C70.2102 49.4757 70.8812 50.1371 71.7539 50.177C71.7817 50.1781 71.8094 50.1789 71.8368 50.1789C72.6732 50.1789 73.3718 49.5961 73.4155 48.8452C73.4309 48.5789 73.4387 48.2947 73.4387 48.0001C73.4387 38.4728 64.7186 30.7218 54.0006 30.7218C52.0931 30.7218 50.2292 30.9633 48.4327 31.4415C48.3761 31.0563 48.2761 30.6699 48.1308 30.2867C47.7157 29.1997 46.9631 28.2487 45.9497 27.5341C44.9351 26.8233 43.7211 26.3906 42.4388 26.2824L36.2157 25.7574L38.5966 24.1437L53.2832 24.1225C53.3172 24.1229 53.3505 24.1233 53.3843 24.1233C56.1912 24.1233 58.6666 22.547 59.6316 20.2803L59.7886 20.2801C62.9236 20.3264 65.6468 18.4182 66.3771 15.7647C68.4535 14.9623 70.0063 13.2478 70.3366 11.145C70.3792 10.8774 70.4009 10.599 70.4009 10.3176C70.4009 7.72498 68.5343 5.45358 65.7565 4.66533L50.66 0.379607C48.6139 -0.202397 46.3967 -0.112772 44.4162 0.631984L29.8276 6.12203C29.0231 6.42484 28.6468 7.25022 28.9877 7.96535C29.3283 8.68086 30.2575 9.01499 31.0612 8.71217L45.6493 3.22213C46.9333 2.73931 48.3698 2.68119 49.6964 3.05844L64.7937 7.34472C66.2549 7.7591 67.2364 8.95386 67.2364 10.3176C67.2364 10.4696 67.2257 10.6112 67.2031 10.7531C66.9607 12.2965 65.4711 13.444 63.7236 13.444C63.7023 13.444 63.681 13.4438 63.6597 13.4434L50.0457 13.2278C49.6901 13.2233 49.3416 13.3236 49.0581 13.5156L31.0819 25.6994C30.564 26.0504 30.341 26.6476 30.5201 27.2041C30.6992 27.7608 31.2434 28.163 31.8917 28.2176L42.1391 29.082C42.8145 29.139 43.4545 29.3673 43.9863 29.7399C44.5181 30.1147 44.9146 30.6163 45.1332 31.188C45.7449 32.799 44.8203 34.5236 43.0273 35.1141L41.7769 35.5264C36.4197 37.2913 30.5931 37.882 24.9275 37.2353L16.819 36.3085L16.7595 26.2147L16.6893 14.121L25.2456 10.9018C26.0501 10.599 26.4264 9.77381 26.0858 9.05868C25.7451 8.34336 24.8159 8.00942 24.012 8.31186L14.8134 11.7731L2.81939 11.3297C2.38549 11.3132 1.96656 11.4557 1.65543 11.7225C1.34408 11.9893 1.16921 12.3578 1.17153 12.7421L1.31307 37.0976C1.3175 37.8488 1.98512 38.4643 2.8293 38.4955L15.1112 38.9498L24.5238 40.0257C26.1476 40.2111 27.7834 40.3032 29.419 40.3032C31.9577 40.3032 34.4953 40.0804 36.9852 39.6413C35.4059 42.1778 34.5621 45.0453 34.5621 48.0003C34.5621 57.5272 43.2817 65.278 53.9996 65.278C55.9065 65.278 57.7703 65.0371 59.5667 64.5597C59.6234 64.9437 59.723 65.3292 59.8681 65.7111C60.7097 67.9249 62.9449 69.4979 65.5618 69.7184L71.7834 70.2425L69.4023 71.8565L54.7163 71.8777C51.8598 71.8366 49.3422 73.4255 48.3673 75.7199L48.2108 75.7201C48.1751 75.7196 48.1395 75.7194 48.1038 75.7194C45.0123 75.7194 42.346 77.6111 41.6231 80.2324C39.5431 81.0341 37.9922 82.7511 37.6613 84.858C37.2099 87.7289 39.137 90.4527 42.2435 91.3347L57.34 95.6214C58.2312 95.8743 59.1543 96.0001 60.0761 96.0001C61.2719 96.0001 62.4656 95.7884 63.583 95.3679L93.1868 84.2269L105.18 84.6703C105.201 84.6711 105.223 84.6715 105.245 84.6715C105.654 84.6715 106.048 84.5308 106.343 84.2775C106.655 84.0107 106.83 83.6423 106.827 83.2579L106.687 58.9026ZM53.322 21.3104C53.3119 21.3102 53.3011 21.3091 53.2917 21.3102L42.7542 21.3254L44.2639 20.3022L55.9767 20.2857C55.3137 20.9296 54.3582 21.3258 53.322 21.3104V21.3104ZM50.5393 16.0489L62.6774 16.2413C62.0165 17.0033 60.9743 17.4818 59.8295 17.4679C59.819 17.4677 59.808 17.4677 59.7981 17.4677L48.4225 17.4837L50.5393 16.0489ZM4.46935 35.7411L4.34406 14.2011L13.5265 14.5405L13.6049 27.8533L13.6528 36.0804L4.46935 35.7411ZM54.6161 74.6891C54.6368 74.6891 54.6573 74.6893 54.6779 74.6896C54.6881 74.6896 54.6976 74.6893 54.7083 74.6898L65.2456 74.6746L63.7361 75.6978L52.021 75.7143C52.67 75.0826 53.6007 74.6891 54.6161 74.6891V74.6891ZM48.1053 78.5315C48.127 78.5315 48.1487 78.5317 48.1705 78.5319C48.181 78.5321 48.1911 78.5317 48.2019 78.5321L59.5783 78.5162L57.4609 79.9515L45.3196 79.758C45.9668 79.0082 46.9818 78.5315 48.1053 78.5315V78.5315ZM62.3504 92.7777C61.0677 93.2605 59.6306 93.3188 58.3038 92.942L43.2073 88.6553C41.5725 88.1912 40.5583 86.7578 40.7958 85.2469C41.0384 83.703 42.5285 82.5551 44.2761 82.5551C44.2974 82.5551 44.3185 82.5553 44.3398 82.5557L57.9542 82.7726C58.3057 82.776 58.6586 82.6768 58.9421 82.4848L76.9175 70.2997C77.4353 69.9485 77.6583 69.3513 77.4792 68.7948C77.3001 68.2383 76.7557 67.8361 76.1075 67.7815L65.8613 66.9183C64.4849 66.8024 63.3092 65.9749 62.8666 64.8106C62.2547 63.2005 63.1794 61.4762 64.9722 60.8854L66.2224 60.4735C71.5794 58.7085 77.4062 58.1179 83.0723 58.7649L91.182 59.6912L91.3109 81.8792L62.3504 92.7777ZM94.4725 81.4594L94.3474 59.9194L103.531 60.259L103.656 81.7987L94.4725 81.4594Z" fill="#A5A17B"/>
</g>
<defs>
<clipPath id="clip0">
<rect width="108" height="96" fill="white"/>
</clipPath>
</defs>
</svg>
