<svg width="106" height="96" viewBox="0 0 106 96" fill="none" xmlns="http://www.w3.org/2000/svg">
<path d="M99.439 38.2635V13.4736C103.131 13.0663 106 10.2142 106 6.76538C106 3.03506 102.649 0 98.5299 0H7.4701C3.35121 0 0 3.03506 0 6.76538C0 10.2142 2.86945 13.0663 6.56103 13.4736V38.2635C2.94316 38.2643 0 40.9301 0 44.2069C0 45.7793 0.67782 47.211 1.78254 48.2751C0.67782 49.3391 0 50.7707 0 52.3431C0 53.9154 0.67782 55.3472 1.78254 56.4112C0.67782 57.4753 0 58.9073 0 60.4796C0 62.052 0.67782 63.4838 1.78254 64.5478C0.67782 65.6119 0 67.0436 0 68.616C0 71.8927 2.94316 74.5586 6.56103 74.5592V82.5263C2.86945 82.9337 0 85.7858 0 89.2346C0 92.9649 3.35121 96 7.4701 96H98.5299C102.649 96 106 92.9649 106 89.2346C106 85.7858 103.131 82.9337 99.439 82.5264V74.5594C103.057 74.5586 106 71.8927 106 68.616C106 67.0436 105.322 65.6119 104.217 64.5478C105.322 63.4838 106 62.0518 106 60.4796C106 58.9074 105.322 57.4755 104.217 56.4114C105.322 55.3474 106 53.9154 106 52.3433C106 50.7711 105.322 49.3393 104.217 48.2752C105.322 47.2112 106 45.7792 106 44.2071C106 40.9301 103.057 38.2643 99.439 38.2635ZM4.14062 6.76538C4.14062 5.10281 5.63415 3.75 7.4701 3.75H98.5299C100.366 3.75 101.859 5.10281 101.859 6.76538C101.859 8.42531 100.366 9.7755 98.5299 9.7755H7.4701C5.63415 9.7755 4.14062 8.42531 4.14062 6.76538V6.76538ZM95.2983 13.5255V38.2637H88.6394V13.5255H95.2983ZM77.8986 56.4112C77.1365 57.1451 76.578 58.0543 76.3045 59.0636H74.266C73.1551 59.0636 72.2512 58.245 72.2512 57.2389V47.1964C72.2512 46.1873 73.1551 45.3662 74.266 45.3662H76.2415C76.4854 46.4781 77.0724 47.4793 77.8984 48.2749C76.7937 49.3389 76.1159 50.7707 76.1159 52.3429C76.1159 53.9151 76.7939 55.3474 77.8986 56.4112V56.4112ZM76.7732 41.6164H74.266C70.872 41.6164 68.1106 44.1197 68.1106 47.1966V57.2391C68.1106 60.3131 70.872 62.8138 74.266 62.8138H76.6452C76.9502 63.4579 77.3759 64.0444 77.8984 64.5478C76.7937 65.6119 76.1159 67.0438 76.1159 68.616C76.1159 71.8931 79.0596 74.5592 82.6781 74.5592H84.4986V82.4745H60.4672V45.9099C60.4672 44.8746 59.5403 44.0349 58.3969 44.0349C57.2535 44.0349 56.3266 44.8746 56.3266 45.9099V82.4747H49.6734V13.5255H56.3266V28.9965C56.3266 30.0319 57.2535 30.8715 58.3969 30.8715C59.5403 30.8715 60.4672 30.0319 60.4672 28.9965V13.5255H84.4988V38.2637H82.6783C80.0847 38.2635 77.838 39.6336 76.7732 41.6164V41.6164ZM95.2983 74.5592V82.4745H88.6394V74.5592H95.2983ZM28.1014 64.5478C28.6241 64.0444 29.0496 63.4579 29.3545 62.8138H31.7337C35.128 62.8138 37.8892 60.3129 37.8892 57.2391V47.1966C37.8892 44.1197 35.1278 41.6164 31.7337 41.6164H29.2268C28.162 39.6336 25.9153 38.2635 23.3219 38.2635H21.5014V13.5255H45.533V82.4747H21.5012V74.5594H23.3217C26.9401 74.5594 29.8839 71.8931 29.8839 68.6162C29.8839 67.0436 29.2061 65.6119 28.1014 64.5478ZM28.1014 48.2751C28.9274 47.4795 29.5144 46.4782 29.7583 45.3664H31.7337C32.8449 45.3664 33.7486 46.1874 33.7486 47.1966V57.2391C33.7486 58.2452 32.8447 59.0638 31.7337 59.0638H29.6955C29.422 58.0545 28.8635 57.1453 28.1014 56.4114C29.2061 55.3474 29.8839 53.9154 29.8839 52.3433C29.8839 50.7711 29.2061 49.3391 28.1014 48.2751V48.2751ZM17.3606 13.5255V38.2637H10.7017V13.5255H17.3606ZM4.14062 68.616C4.14062 67.4066 5.22713 66.4228 6.56227 66.4228C7.7057 66.4228 8.63258 65.5832 8.63258 64.5478C8.63258 63.5124 7.7057 62.6728 6.56227 62.6728C5.22692 62.6728 4.14062 61.689 4.14062 60.4796C4.14062 59.2703 5.22713 58.2864 6.56227 58.2864C7.7057 58.2864 8.63258 57.4468 8.63258 56.4114C8.63258 55.3761 7.7057 54.5364 6.56227 54.5364C5.22692 54.5364 4.14062 53.5526 4.14062 52.3433C4.14062 51.1341 5.22713 50.1502 6.56227 50.1502C7.7057 50.1502 8.63258 49.3106 8.63258 48.2752C8.63258 47.2399 7.7057 46.4003 6.56227 46.4003C5.22692 46.4003 4.14062 45.4164 4.14062 44.2071C4.14062 42.9977 5.22713 42.0139 6.56227 42.0139H23.3217C24.657 42.0139 25.7433 42.9977 25.7433 44.2071C25.7433 45.4164 24.657 46.4003 23.3217 46.4003H16.9138C15.7704 46.4003 14.8435 47.2399 14.8435 48.2752C14.8435 49.3106 15.7704 50.1502 16.9138 50.1502H23.3217C24.657 50.1502 25.7433 51.1341 25.7433 52.3433C25.7433 53.5526 24.657 54.5364 23.3217 54.5364H16.9138C15.7704 54.5364 14.8435 55.3761 14.8435 56.4114C14.8435 57.4468 15.7704 58.2864 16.9138 58.2864H23.3217C24.657 58.2864 25.7433 59.2703 25.7433 60.4796C25.7433 61.689 24.657 62.6728 23.3217 62.6728C23.3192 62.6728 23.3165 62.6728 23.314 62.6728L16.9062 62.6942C15.7629 62.6981 14.8394 63.5406 14.8435 64.5761C14.8479 65.6093 15.7739 66.4442 16.9136 66.4442H16.9215L23.3223 66.4228C24.6572 66.423 25.7433 67.4068 25.7433 68.616C25.7433 69.8254 24.657 70.8092 23.3217 70.8092H6.56227C5.22713 70.8092 4.14062 69.8254 4.14062 68.616V68.616ZM17.3606 74.5592V82.4745H10.7017V74.5592H17.3606ZM101.859 89.2346C101.859 90.8972 100.366 92.25 98.5299 92.25H7.4701C5.63415 92.25 4.14062 90.8972 4.14062 89.2346C4.14062 87.5747 5.63415 86.2245 7.4701 86.2245H98.5299C100.366 86.2245 101.859 87.5747 101.859 89.2346ZM99.4377 50.1501C100.773 50.1501 101.859 51.1339 101.859 52.3431C101.859 53.5524 100.773 54.5362 99.4377 54.5362C98.2943 54.5362 97.3674 55.3759 97.3674 56.4112C97.3674 57.4466 98.2943 58.2862 99.4377 58.2862C100.773 58.2862 101.859 59.2701 101.859 60.4794C101.859 61.6888 100.773 62.6726 99.4377 62.6726C98.2943 62.6726 97.3674 63.5122 97.3674 64.5476C97.3674 65.583 98.2943 66.4226 99.4377 66.4226C100.773 66.4226 101.859 67.4064 101.859 68.6158C101.859 69.8252 100.773 70.809 99.4377 70.809H82.6783C81.343 70.809 80.2567 69.8252 80.2567 68.6158C80.2567 67.4066 81.3428 66.4228 82.6777 66.4226L89.0785 66.444H89.0864C90.2261 66.444 91.1523 65.6091 91.1565 64.5759C91.1608 63.5404 90.2373 62.6978 89.0938 62.694L82.686 62.6726C82.6833 62.6726 82.681 62.6726 82.6783 62.6726C81.343 62.6726 80.2567 61.6888 80.2567 60.4794C80.2567 59.2701 81.343 58.2862 82.6783 58.2862H89.0862C90.2296 58.2862 91.1565 57.4466 91.1565 56.4112C91.1565 55.3759 90.2296 54.5362 89.0862 54.5362H82.6783C81.343 54.5362 80.2567 53.5524 80.2567 52.3431C80.2567 51.1339 81.343 50.1501 82.6783 50.1501H89.0862C90.2296 50.1501 91.1565 49.3104 91.1565 48.2751C91.1565 47.2397 90.2296 46.4001 89.0862 46.4001H82.6783C81.343 46.4001 80.2567 45.4163 80.2567 44.2069C80.2567 42.9975 81.343 42.0137 82.6783 42.0137H99.4377C100.773 42.0137 101.859 42.9975 101.859 44.2069C101.859 45.4163 100.773 46.4001 99.4377 46.4001C98.2943 46.4001 97.3674 47.2397 97.3674 48.2751C97.3674 49.3104 98.2943 50.1501 99.4377 50.1501V50.1501Z" fill="#A5A17B"/>
<path d="M58.3969 35.5781C57.2534 35.5781 56.3265 36.4177 56.3265 37.4531V37.4584C56.3265 38.4937 57.2534 39.3307 58.3969 39.3307C59.5403 39.3307 60.4672 38.4885 60.4672 37.4529C60.4672 36.4174 59.5403 35.5781 58.3969 35.5781V35.5781Z" fill="#A5A17B"/>
</svg>
