<svg width="99" height="98" viewBox="0 0 99 98" fill="none" xmlns="http://www.w3.org/2000/svg">
<path d="M99 49C99 21.938 76.8381 0 49.5 0C22.1619 0 0 21.938 0 49C0 76.062 22.1619 98 49.5 98C76.8381 98 99 76.062 99 49ZM9.28125 49C9.28125 27.0122 27.2878 9.1875 49.5 9.1875C71.7122 9.1875 89.7188 27.0122 89.7188 49C89.7188 70.9878 71.7122 88.8125 49.5 88.8125C27.2878 88.8125 9.28125 70.9878 9.28125 49Z" fill="#322715"/>
<path d="M30.6722 33.9502L21.9215 42.6125L49.5 69.9122L77.0782 42.6123L68.3279 33.9504L49.5 52.588L30.6722 33.9502Z" fill="#322715"/>
</svg>
