<svg width="15" height="15" viewBox="0 0 15 15" fill="none" xmlns="http://www.w3.org/2000/svg">
<path d="M7.5 3.51562C6.53054 3.51562 5.74219 4.30397 5.74219 5.27344C5.74219 6.24753 6.52913 7.03125 7.5 7.03125C8.48827 7.03125 9.25781 6.23276 9.25781 5.27344C9.25781 4.30397 8.46946 3.51562 7.5 3.51562Z" fill="black"/>
<path d="M7.5 0C4.59205 0 2.22656 2.36549 2.22656 5.27344C2.22656 6.25576 2.49864 7.2145 3.01321 8.04621L7.19962 14.7921C7.3732 15.0724 7.78248 15.0681 7.95064 14.7861L12.0302 7.97496C12.5159 7.16086 12.7734 6.22658 12.7734 5.27344C12.7734 2.36549 10.4079 0 7.5 0ZM7.5 7.91602C6.02505 7.91602 4.85742 6.71546 4.85742 5.27344C4.85742 3.81946 6.04603 2.63086 7.5 2.63086C8.95397 2.63086 10.1426 3.81946 10.1426 5.27344C10.1426 6.70274 8.99065 7.91602 7.5 7.91602Z" fill="black"/>
</svg>
