<svg width="190" height="47" viewBox="0 0 190 47" fill="none" xmlns="http://www.w3.org/2000/svg">
<rect width="46.7692" height="3.27273" fill="white"/>
<rect width="46.7692" height="3.27273" fill="white"/>
<rect y="42.5454" width="46.7692" height="3.27272" fill="white"/>
<rect y="42.5454" width="46.7692" height="3.27272" fill="white"/>
<rect x="4.87183" y="7.63623" width="6.82051" height="29.4545" fill="white"/>
<rect x="15.5897" y="7.63623" width="5.84615" height="29.4545" fill="white"/>
<rect x="15.5897" y="7.63623" width="5.84615" height="29.4545" fill="white"/>
<rect x="25.3334" y="7.63623" width="5.84616" height="29.4545" fill="white"/>
<rect x="25.3334" y="7.63623" width="5.84616" height="29.4545" fill="white"/>
<rect x="35.0769" y="7.63623" width="6.82051" height="29.4545" fill="white"/>
<rect x="35.0769" y="7.63623" width="6.82051" height="29.4545" fill="white"/>
<path d="M55.397 17.4407C54.6223 17.4407 53.871 17.338 53.143 17.1327C52.4243 16.918 51.8457 16.6427 51.407 16.3067L52.177 14.5987C52.597 14.9067 53.0963 15.154 53.675 15.3407C54.2537 15.5274 54.8323 15.6207 55.411 15.6207C56.055 15.6207 56.531 15.5274 56.839 15.3407C57.147 15.1447 57.301 14.888 57.301 14.5707C57.301 14.3374 57.2077 14.146 57.021 13.9967C56.8437 13.838 56.6103 13.712 56.321 13.6187C56.041 13.5254 55.6583 13.4227 55.173 13.3107C54.4263 13.1334 53.815 12.956 53.339 12.7787C52.863 12.6014 52.4523 12.3167 52.107 11.9247C51.771 11.5327 51.603 11.01 51.603 10.3567C51.603 9.78737 51.757 9.27404 52.065 8.8167C52.373 8.35004 52.835 7.98137 53.451 7.7107C54.0763 7.44004 54.837 7.3047 55.733 7.3047C56.3583 7.3047 56.9697 7.37937 57.567 7.5287C58.1643 7.67804 58.687 7.8927 59.135 8.1727L58.435 9.8947C57.5297 9.38137 56.6243 9.1247 55.719 9.1247C55.0843 9.1247 54.613 9.22737 54.305 9.43271C54.0063 9.63804 53.857 9.9087 53.857 10.2447C53.857 10.5807 54.0297 10.8327 54.375 11.0007C54.7297 11.1594 55.2663 11.318 55.985 11.4767C56.7317 11.654 57.343 11.8314 57.819 12.0087C58.295 12.186 58.701 12.466 59.037 12.8487C59.3823 13.2314 59.555 13.7494 59.555 14.4027C59.555 14.9627 59.3963 15.476 59.079 15.9427C58.771 16.4 58.3043 16.764 57.679 17.0347C57.0537 17.3054 56.293 17.4407 55.397 17.4407ZM61.1047 7.4727H63.3727V17.2727H61.1047V7.4727ZM72.1525 15.1727H67.6025L66.7345 17.2727H64.4105L68.7785 7.4727H71.0185L75.4005 17.2727H73.0205L72.1525 15.1727ZM71.4385 13.4507L69.8845 9.6987L68.3305 13.4507H71.4385ZM78.4283 17.4407C77.7656 17.4407 77.1543 17.3194 76.5943 17.0767C76.0436 16.8247 75.591 16.47 75.2363 16.0127L76.4963 14.5007C77.0283 15.2194 77.635 15.5787 78.3163 15.5787C79.2403 15.5787 79.7023 15.0374 79.7023 13.9547V9.2927H76.2583V7.4727H81.9563V13.8287C81.9563 15.0327 81.6576 15.938 81.0603 16.5447C80.463 17.142 79.5856 17.4407 78.4283 17.4407ZM94.6154 15.1727H90.0654L89.1974 17.2727H86.8734L91.2414 7.4727H93.4814L97.8634 17.2727H95.4834L94.6154 15.1727ZM93.9014 13.4507L92.3474 9.6987L90.7934 13.4507H93.9014ZM106.076 12.1767C106.636 12.354 107.075 12.6527 107.392 13.0727C107.709 13.4834 107.868 13.992 107.868 14.5987C107.868 15.4574 107.532 16.12 106.86 16.5867C106.197 17.044 105.227 17.2727 103.948 17.2727H98.8801V7.4727H103.668C104.863 7.4727 105.777 7.70137 106.412 8.1587C107.056 8.61604 107.378 9.2367 107.378 10.0207C107.378 10.4967 107.261 10.9214 107.028 11.2947C106.804 11.668 106.487 11.962 106.076 12.1767ZM101.134 9.1807V11.4907H103.388C103.948 11.4907 104.373 11.3927 104.662 11.1967C104.951 11.0007 105.096 10.7114 105.096 10.3287C105.096 9.94604 104.951 9.66137 104.662 9.4747C104.373 9.2787 103.948 9.1807 103.388 9.1807H101.134ZM103.78 15.5647C104.377 15.5647 104.825 15.4667 105.124 15.2707C105.432 15.0747 105.586 14.7714 105.586 14.3607C105.586 13.5487 104.984 13.1427 103.78 13.1427H101.134V15.5647H103.78ZM114.331 17.4407C113.314 17.4407 112.395 17.2214 111.573 16.7827C110.761 16.344 110.122 15.742 109.655 14.9767C109.198 14.202 108.969 13.334 108.969 12.3727C108.969 11.4114 109.198 10.548 109.655 9.7827C110.122 9.00804 110.761 8.40137 111.573 7.9627C112.395 7.52404 113.314 7.3047 114.331 7.3047C115.349 7.3047 116.263 7.52404 117.075 7.9627C117.887 8.40137 118.527 9.00804 118.993 9.7827C119.46 10.548 119.693 11.4114 119.693 12.3727C119.693 13.334 119.46 14.202 118.993 14.9767C118.527 15.742 117.887 16.344 117.075 16.7827C116.263 17.2214 115.349 17.4407 114.331 17.4407ZM114.331 15.5087C114.91 15.5087 115.433 15.378 115.899 15.1167C116.366 14.846 116.73 14.4727 116.991 13.9967C117.262 13.5207 117.397 12.9794 117.397 12.3727C117.397 11.766 117.262 11.2247 116.991 10.7487C116.73 10.2727 116.366 9.90404 115.899 9.6427C115.433 9.37204 114.91 9.23671 114.331 9.23671C113.753 9.23671 113.23 9.37204 112.763 9.6427C112.297 9.90404 111.928 10.2727 111.657 10.7487C111.396 11.2247 111.265 11.766 111.265 12.3727C111.265 12.9794 111.396 13.5207 111.657 13.9967C111.928 14.4727 112.297 14.846 112.763 15.1167C113.23 15.378 113.753 15.5087 114.331 15.5087ZM128.02 12.2187H130.092V16.1947C129.56 16.596 128.944 16.904 128.244 17.1187C127.544 17.3334 126.839 17.4407 126.13 17.4407C125.112 17.4407 124.198 17.226 123.386 16.7967C122.574 16.358 121.934 15.756 121.468 14.9907C121.01 14.216 120.782 13.3434 120.782 12.3727C120.782 11.402 121.01 10.534 121.468 9.7687C121.934 8.99404 122.578 8.39204 123.4 7.9627C124.221 7.52404 125.145 7.3047 126.172 7.3047C127.03 7.3047 127.81 7.44937 128.51 7.7387C129.21 8.02804 129.798 8.44804 130.274 8.9987L128.818 10.3427C128.118 9.60537 127.273 9.23671 126.284 9.23671C125.658 9.23671 125.103 9.36737 124.618 9.62871C124.132 9.89004 123.754 10.2587 123.484 10.7347C123.213 11.2107 123.078 11.7567 123.078 12.3727C123.078 12.9794 123.213 13.5207 123.484 13.9967C123.754 14.4727 124.128 14.846 124.604 15.1167C125.089 15.378 125.64 15.5087 126.256 15.5087C126.909 15.5087 127.497 15.3687 128.02 15.0887V12.2187ZM138.652 15.1727H134.102L133.234 17.2727H130.91L135.278 7.4727H137.518L141.9 17.2727H139.52L138.652 15.1727ZM137.938 13.4507L136.384 9.6987L134.83 13.4507H137.938ZM142.917 7.4727H147.369C148.433 7.4727 149.371 7.67804 150.183 8.0887C151.005 8.49004 151.639 9.05937 152.087 9.7967C152.545 10.534 152.773 11.3927 152.773 12.3727C152.773 13.3527 152.545 14.2114 152.087 14.9487C151.639 15.686 151.005 16.26 150.183 16.6707C149.371 17.072 148.433 17.2727 147.369 17.2727H142.917V7.4727ZM147.257 15.4107C148.237 15.4107 149.017 15.14 149.595 14.5987C150.183 14.048 150.477 13.306 150.477 12.3727C150.477 11.4394 150.183 10.702 149.595 10.1607C149.017 9.61004 148.237 9.3347 147.257 9.3347H145.185V15.4107H147.257ZM159.23 17.4407C158.212 17.4407 157.293 17.2214 156.472 16.7827C155.66 16.344 155.02 15.742 154.554 14.9767C154.096 14.202 153.868 13.334 153.868 12.3727C153.868 11.4114 154.096 10.548 154.554 9.7827C155.02 9.00804 155.66 8.40137 156.472 7.9627C157.293 7.52404 158.212 7.3047 159.23 7.3047C160.247 7.3047 161.162 7.52404 161.974 7.9627C162.786 8.40137 163.425 9.00804 163.892 9.7827C164.358 10.548 164.592 11.4114 164.592 12.3727C164.592 13.334 164.358 14.202 163.892 14.9767C163.425 15.742 162.786 16.344 161.974 16.7827C161.162 17.2214 160.247 17.4407 159.23 17.4407ZM159.23 15.5087C159.808 15.5087 160.331 15.378 160.798 15.1167C161.264 14.846 161.628 14.4727 161.89 13.9967C162.16 13.5207 162.296 12.9794 162.296 12.3727C162.296 11.766 162.16 11.2247 161.89 10.7487C161.628 10.2727 161.264 9.90404 160.798 9.6427C160.331 9.37204 159.808 9.23671 159.23 9.23671C158.651 9.23671 158.128 9.37204 157.662 9.6427C157.195 9.90404 156.826 10.2727 156.556 10.7487C156.294 11.2247 156.164 11.766 156.164 12.3727C156.164 12.9794 156.294 13.5207 156.556 13.9967C156.826 14.4727 157.195 14.846 157.662 15.1167C158.128 15.378 158.651 15.5087 159.23 15.5087ZM169.516 17.4407C168.741 17.4407 167.99 17.338 167.262 17.1327C166.543 16.918 165.965 16.6427 165.526 16.3067L166.296 14.5987C166.716 14.9067 167.215 15.154 167.794 15.3407C168.373 15.5274 168.951 15.6207 169.53 15.6207C170.174 15.6207 170.65 15.5274 170.958 15.3407C171.266 15.1447 171.42 14.888 171.42 14.5707C171.42 14.3374 171.327 14.146 171.14 13.9967C170.963 13.838 170.729 13.712 170.44 13.6187C170.16 13.5254 169.777 13.4227 169.292 13.3107C168.545 13.1334 167.934 12.956 167.458 12.7787C166.982 12.6014 166.571 12.3167 166.226 11.9247C165.89 11.5327 165.722 11.01 165.722 10.3567C165.722 9.78737 165.876 9.27404 166.184 8.8167C166.492 8.35004 166.954 7.98137 167.57 7.7107C168.195 7.44004 168.956 7.3047 169.852 7.3047C170.477 7.3047 171.089 7.37937 171.686 7.5287C172.283 7.67804 172.806 7.8927 173.254 8.1727L172.554 9.8947C171.649 9.38137 170.743 9.1247 169.838 9.1247C169.203 9.1247 168.732 9.22737 168.424 9.43271C168.125 9.63804 167.976 9.9087 167.976 10.2447C167.976 10.5807 168.149 10.8327 168.494 11.0007C168.849 11.1594 169.385 11.318 170.104 11.4767C170.851 11.654 171.462 11.8314 171.938 12.0087C172.414 12.186 172.82 12.466 173.156 12.8487C173.501 13.2314 173.674 13.7494 173.674 14.4027C173.674 14.9627 173.515 15.476 173.198 15.9427C172.89 16.4 172.423 16.764 171.798 17.0347C171.173 17.3054 170.412 17.4407 169.516 17.4407Z" fill="white"/>
<path d="M55.397 17.4407C54.6223 17.4407 53.871 17.338 53.143 17.1327C52.4243 16.918 51.8457 16.6427 51.407 16.3067L52.177 14.5987C52.597 14.9067 53.0963 15.154 53.675 15.3407C54.2537 15.5274 54.8323 15.6207 55.411 15.6207C56.055 15.6207 56.531 15.5274 56.839 15.3407C57.147 15.1447 57.301 14.888 57.301 14.5707C57.301 14.3374 57.2077 14.146 57.021 13.9967C56.8437 13.838 56.6103 13.712 56.321 13.6187C56.041 13.5254 55.6583 13.4227 55.173 13.3107C54.4263 13.1334 53.815 12.956 53.339 12.7787C52.863 12.6014 52.4523 12.3167 52.107 11.9247C51.771 11.5327 51.603 11.01 51.603 10.3567C51.603 9.78737 51.757 9.27404 52.065 8.8167C52.373 8.35004 52.835 7.98137 53.451 7.7107C54.0763 7.44004 54.837 7.3047 55.733 7.3047C56.3583 7.3047 56.9697 7.37937 57.567 7.5287C58.1643 7.67804 58.687 7.8927 59.135 8.1727L58.435 9.8947C57.5297 9.38137 56.6243 9.1247 55.719 9.1247C55.0843 9.1247 54.613 9.22737 54.305 9.43271C54.0063 9.63804 53.857 9.9087 53.857 10.2447C53.857 10.5807 54.0297 10.8327 54.375 11.0007C54.7297 11.1594 55.2663 11.318 55.985 11.4767C56.7317 11.654 57.343 11.8314 57.819 12.0087C58.295 12.186 58.701 12.466 59.037 12.8487C59.3823 13.2314 59.555 13.7494 59.555 14.4027C59.555 14.9627 59.3963 15.476 59.079 15.9427C58.771 16.4 58.3043 16.764 57.679 17.0347C57.0537 17.3054 56.293 17.4407 55.397 17.4407ZM61.1047 7.4727H63.3727V17.2727H61.1047V7.4727ZM72.1525 15.1727H67.6025L66.7345 17.2727H64.4105L68.7785 7.4727H71.0185L75.4005 17.2727H73.0205L72.1525 15.1727ZM71.4385 13.4507L69.8845 9.6987L68.3305 13.4507H71.4385ZM78.4283 17.4407C77.7656 17.4407 77.1543 17.3194 76.5943 17.0767C76.0436 16.8247 75.591 16.47 75.2363 16.0127L76.4963 14.5007C77.0283 15.2194 77.635 15.5787 78.3163 15.5787C79.2403 15.5787 79.7023 15.0374 79.7023 13.9547V9.2927H76.2583V7.4727H81.9563V13.8287C81.9563 15.0327 81.6576 15.938 81.0603 16.5447C80.463 17.142 79.5856 17.4407 78.4283 17.4407ZM94.6154 15.1727H90.0654L89.1974 17.2727H86.8734L91.2414 7.4727H93.4814L97.8634 17.2727H95.4834L94.6154 15.1727ZM93.9014 13.4507L92.3474 9.6987L90.7934 13.4507H93.9014ZM106.076 12.1767C106.636 12.354 107.075 12.6527 107.392 13.0727C107.709 13.4834 107.868 13.992 107.868 14.5987C107.868 15.4574 107.532 16.12 106.86 16.5867C106.197 17.044 105.227 17.2727 103.948 17.2727H98.8801V7.4727H103.668C104.863 7.4727 105.777 7.70137 106.412 8.1587C107.056 8.61604 107.378 9.2367 107.378 10.0207C107.378 10.4967 107.261 10.9214 107.028 11.2947C106.804 11.668 106.487 11.962 106.076 12.1767ZM101.134 9.1807V11.4907H103.388C103.948 11.4907 104.373 11.3927 104.662 11.1967C104.951 11.0007 105.096 10.7114 105.096 10.3287C105.096 9.94604 104.951 9.66137 104.662 9.4747C104.373 9.2787 103.948 9.1807 103.388 9.1807H101.134ZM103.78 15.5647C104.377 15.5647 104.825 15.4667 105.124 15.2707C105.432 15.0747 105.586 14.7714 105.586 14.3607C105.586 13.5487 104.984 13.1427 103.78 13.1427H101.134V15.5647H103.78ZM114.331 17.4407C113.314 17.4407 112.395 17.2214 111.573 16.7827C110.761 16.344 110.122 15.742 109.655 14.9767C109.198 14.202 108.969 13.334 108.969 12.3727C108.969 11.4114 109.198 10.548 109.655 9.7827C110.122 9.00804 110.761 8.40137 111.573 7.9627C112.395 7.52404 113.314 7.3047 114.331 7.3047C115.349 7.3047 116.263 7.52404 117.075 7.9627C117.887 8.40137 118.527 9.00804 118.993 9.7827C119.46 10.548 119.693 11.4114 119.693 12.3727C119.693 13.334 119.46 14.202 118.993 14.9767C118.527 15.742 117.887 16.344 117.075 16.7827C116.263 17.2214 115.349 17.4407 114.331 17.4407ZM114.331 15.5087C114.91 15.5087 115.433 15.378 115.899 15.1167C116.366 14.846 116.73 14.4727 116.991 13.9967C117.262 13.5207 117.397 12.9794 117.397 12.3727C117.397 11.766 117.262 11.2247 116.991 10.7487C116.73 10.2727 116.366 9.90404 115.899 9.6427C115.433 9.37204 114.91 9.23671 114.331 9.23671C113.753 9.23671 113.23 9.37204 112.763 9.6427C112.297 9.90404 111.928 10.2727 111.657 10.7487C111.396 11.2247 111.265 11.766 111.265 12.3727C111.265 12.9794 111.396 13.5207 111.657 13.9967C111.928 14.4727 112.297 14.846 112.763 15.1167C113.23 15.378 113.753 15.5087 114.331 15.5087ZM128.02 12.2187H130.092V16.1947C129.56 16.596 128.944 16.904 128.244 17.1187C127.544 17.3334 126.839 17.4407 126.13 17.4407C125.112 17.4407 124.198 17.226 123.386 16.7967C122.574 16.358 121.934 15.756 121.468 14.9907C121.01 14.216 120.782 13.3434 120.782 12.3727C120.782 11.402 121.01 10.534 121.468 9.7687C121.934 8.99404 122.578 8.39204 123.4 7.9627C124.221 7.52404 125.145 7.3047 126.172 7.3047C127.03 7.3047 127.81 7.44937 128.51 7.7387C129.21 8.02804 129.798 8.44804 130.274 8.9987L128.818 10.3427C128.118 9.60537 127.273 9.23671 126.284 9.23671C125.658 9.23671 125.103 9.36737 124.618 9.62871C124.132 9.89004 123.754 10.2587 123.484 10.7347C123.213 11.2107 123.078 11.7567 123.078 12.3727C123.078 12.9794 123.213 13.5207 123.484 13.9967C123.754 14.4727 124.128 14.846 124.604 15.1167C125.089 15.378 125.64 15.5087 126.256 15.5087C126.909 15.5087 127.497 15.3687 128.02 15.0887V12.2187ZM138.652 15.1727H134.102L133.234 17.2727H130.91L135.278 7.4727H137.518L141.9 17.2727H139.52L138.652 15.1727ZM137.938 13.4507L136.384 9.6987L134.83 13.4507H137.938ZM142.917 7.4727H147.369C148.433 7.4727 149.371 7.67804 150.183 8.0887C151.005 8.49004 151.639 9.05937 152.087 9.7967C152.545 10.534 152.773 11.3927 152.773 12.3727C152.773 13.3527 152.545 14.2114 152.087 14.9487C151.639 15.686 151.005 16.26 150.183 16.6707C149.371 17.072 148.433 17.2727 147.369 17.2727H142.917V7.4727ZM147.257 15.4107C148.237 15.4107 149.017 15.14 149.595 14.5987C150.183 14.048 150.477 13.306 150.477 12.3727C150.477 11.4394 150.183 10.702 149.595 10.1607C149.017 9.61004 148.237 9.3347 147.257 9.3347H145.185V15.4107H147.257ZM159.23 17.4407C158.212 17.4407 157.293 17.2214 156.472 16.7827C155.66 16.344 155.02 15.742 154.554 14.9767C154.096 14.202 153.868 13.334 153.868 12.3727C153.868 11.4114 154.096 10.548 154.554 9.7827C155.02 9.00804 155.66 8.40137 156.472 7.9627C157.293 7.52404 158.212 7.3047 159.23 7.3047C160.247 7.3047 161.162 7.52404 161.974 7.9627C162.786 8.40137 163.425 9.00804 163.892 9.7827C164.358 10.548 164.592 11.4114 164.592 12.3727C164.592 13.334 164.358 14.202 163.892 14.9767C163.425 15.742 162.786 16.344 161.974 16.7827C161.162 17.2214 160.247 17.4407 159.23 17.4407ZM159.23 15.5087C159.808 15.5087 160.331 15.378 160.798 15.1167C161.264 14.846 161.628 14.4727 161.89 13.9967C162.16 13.5207 162.296 12.9794 162.296 12.3727C162.296 11.766 162.16 11.2247 161.89 10.7487C161.628 10.2727 161.264 9.90404 160.798 9.6427C160.331 9.37204 159.808 9.23671 159.23 9.23671C158.651 9.23671 158.128 9.37204 157.662 9.6427C157.195 9.90404 156.826 10.2727 156.556 10.7487C156.294 11.2247 156.164 11.766 156.164 12.3727C156.164 12.9794 156.294 13.5207 156.556 13.9967C156.826 14.4727 157.195 14.846 157.662 15.1167C158.128 15.378 158.651 15.5087 159.23 15.5087ZM169.516 17.4407C168.741 17.4407 167.99 17.338 167.262 17.1327C166.543 16.918 165.965 16.6427 165.526 16.3067L166.296 14.5987C166.716 14.9067 167.215 15.154 167.794 15.3407C168.373 15.5274 168.951 15.6207 169.53 15.6207C170.174 15.6207 170.65 15.5274 170.958 15.3407C171.266 15.1447 171.42 14.888 171.42 14.5707C171.42 14.3374 171.327 14.146 171.14 13.9967C170.963 13.838 170.729 13.712 170.44 13.6187C170.16 13.5254 169.777 13.4227 169.292 13.3107C168.545 13.1334 167.934 12.956 167.458 12.7787C166.982 12.6014 166.571 12.3167 166.226 11.9247C165.89 11.5327 165.722 11.01 165.722 10.3567C165.722 9.78737 165.876 9.27404 166.184 8.8167C166.492 8.35004 166.954 7.98137 167.57 7.7107C168.195 7.44004 168.956 7.3047 169.852 7.3047C170.477 7.3047 171.089 7.37937 171.686 7.5287C172.283 7.67804 172.806 7.8927 173.254 8.1727L172.554 9.8947C171.649 9.38137 170.743 9.1247 169.838 9.1247C169.203 9.1247 168.732 9.22737 168.424 9.43271C168.125 9.63804 167.976 9.9087 167.976 10.2447C167.976 10.5807 168.149 10.8327 168.494 11.0007C168.849 11.1594 169.385 11.318 170.104 11.4767C170.851 11.654 171.462 11.8314 171.938 12.0087C172.414 12.186 172.82 12.466 173.156 12.8487C173.501 13.2314 173.674 13.7494 173.674 14.4027C173.674 14.9627 173.515 15.476 173.198 15.9427C172.89 16.4 172.423 16.764 171.798 17.0347C171.173 17.3054 170.412 17.4407 169.516 17.4407Z" fill="white"/>
<path d="M58.6366 35.6759V36.1819H53.3236V28.4819H58.4716V28.9879H53.8846V32.0239H57.9876V32.5189H53.8846V35.6759H58.6366ZM65.4143 36.1819L62.7633 32.6179L60.1233 36.1819H59.4633L62.4223 32.2109L59.6723 28.4819H60.3323L62.7853 31.7929L65.2383 28.4819H65.8653L63.1153 32.1999L66.0743 36.1819H65.4143ZM70.1353 28.4819C71.1033 28.4819 71.8623 28.7129 72.4123 29.1749C72.9623 29.6296 73.2373 30.2639 73.2373 31.0779C73.2373 31.8846 72.9623 32.5189 72.4123 32.9809C71.8623 33.4356 71.1033 33.6629 70.1353 33.6629H67.9353V36.1819H67.3743V28.4819H70.1353ZM70.1353 33.1569C70.9567 33.1569 71.5837 32.9772 72.0163 32.6179C72.449 32.2586 72.6653 31.7452 72.6653 31.0779C72.6653 30.4106 72.449 29.8972 72.0163 29.5379C71.5837 29.1712 70.9567 28.9879 70.1353 28.9879H67.9353V33.1569H70.1353ZM80.4432 35.6759V36.1819H75.1302V28.4819H80.2782V28.9879H75.6912V32.0239H79.7942V32.5189H75.6912V35.6759H80.4432ZM87.8346 36.1819L85.9976 33.6079C85.7263 33.6446 85.4769 33.6629 85.2496 33.6629H83.0496V36.1819H82.4886V28.4819H85.2496C86.2176 28.4819 86.9766 28.7129 87.5266 29.1749C88.0766 29.6296 88.3516 30.2639 88.3516 31.0779C88.3516 31.6866 88.1939 32.1999 87.8786 32.6179C87.5706 33.0286 87.1269 33.3182 86.5476 33.4869L88.4726 36.1819H87.8346ZM85.2496 33.1679C86.0709 33.1679 86.6979 32.9882 87.1306 32.6289C87.5633 32.2622 87.7796 31.7452 87.7796 31.0779C87.7796 30.4106 87.5633 29.8972 87.1306 29.5379C86.6979 29.1712 86.0709 28.9879 85.2496 28.9879H83.0496V33.1679H85.2496ZM91.7722 28.9879H89.0002V28.4819H95.1052V28.9879H92.3332V36.1819H91.7722V28.9879ZM99.656 36.2369C98.9007 36.2369 98.2187 36.0682 97.61 35.7309C97.0013 35.3862 96.521 34.9169 96.169 34.3229C95.8243 33.7289 95.652 33.0652 95.652 32.3319C95.652 31.5986 95.8243 30.9349 96.169 30.3409C96.521 29.7469 97.0013 29.2812 97.61 28.9439C98.2187 28.5992 98.9007 28.4269 99.656 28.4269C100.411 28.4269 101.093 28.5956 101.702 28.9329C102.311 29.2702 102.787 29.7359 103.132 30.3299C103.484 30.9239 103.66 31.5912 103.66 32.3319C103.66 33.0726 103.484 33.7399 103.132 34.3339C102.787 34.9279 102.311 35.3936 101.702 35.7309C101.093 36.0682 100.411 36.2369 99.656 36.2369ZM99.656 35.7199C100.301 35.7199 100.884 35.5732 101.405 35.2799C101.926 34.9866 102.336 34.5832 102.637 34.0699C102.938 33.5492 103.088 32.9699 103.088 32.3319C103.088 31.6939 102.938 31.1182 102.637 30.6049C102.336 30.0842 101.926 29.6772 101.405 29.3839C100.884 29.0906 100.301 28.9439 99.656 28.9439C99.0107 28.9439 98.424 29.0906 97.896 29.3839C97.3753 29.6772 96.9647 30.0842 96.664 30.6049C96.3633 31.1182 96.213 31.6939 96.213 32.3319C96.213 32.9699 96.3633 33.5492 96.664 34.0699C96.9647 34.5832 97.3753 34.9866 97.896 35.2799C98.424 35.5732 99.0107 35.7199 99.656 35.7199ZM107.63 36.2369C107.065 36.2369 106.526 36.1416 106.013 35.9509C105.507 35.7529 105.111 35.4999 104.825 35.1919L105.078 34.7739C105.349 35.0599 105.712 35.2946 106.167 35.4779C106.629 35.6539 107.113 35.7419 107.619 35.7419C108.352 35.7419 108.906 35.6026 109.28 35.3239C109.654 35.0452 109.841 34.6822 109.841 34.2349C109.841 33.8902 109.742 33.6152 109.544 33.4099C109.346 33.2046 109.1 33.0469 108.807 32.9369C108.513 32.8269 108.117 32.7132 107.619 32.5959C107.054 32.4566 106.599 32.3209 106.255 32.1889C105.917 32.0569 105.628 31.8552 105.386 31.5839C105.151 31.3052 105.034 30.9349 105.034 30.4729C105.034 30.0989 105.133 29.7579 105.331 29.4499C105.529 29.1346 105.829 28.8852 106.233 28.7019C106.643 28.5186 107.153 28.4269 107.762 28.4269C108.187 28.4269 108.605 28.4892 109.016 28.6139C109.426 28.7386 109.782 28.9072 110.083 29.1199L109.874 29.5709C109.566 29.3582 109.225 29.1969 108.851 29.0869C108.484 28.9769 108.121 28.9219 107.762 28.9219C107.05 28.9219 106.511 29.0649 106.145 29.3509C105.778 29.6369 105.595 30.0072 105.595 30.4619C105.595 30.8066 105.694 31.0816 105.892 31.2869C106.09 31.4922 106.335 31.6499 106.629 31.7599C106.922 31.8699 107.322 31.9872 107.828 32.1119C108.392 32.2512 108.843 32.3869 109.181 32.5189C109.518 32.6509 109.804 32.8526 110.039 33.1239C110.281 33.3879 110.402 33.7472 110.402 34.2019C110.402 34.5759 110.299 34.9169 110.094 35.2249C109.896 35.5329 109.588 35.7786 109.17 35.9619C108.752 36.1452 108.238 36.2369 107.63 36.2369ZM115.827 36.2369C115.409 36.2369 115.017 36.1416 114.65 35.9509C114.291 35.7529 114.001 35.4816 113.781 35.1369L114.122 34.7629C114.335 35.0782 114.584 35.3202 114.87 35.4889C115.163 35.6502 115.482 35.7309 115.827 35.7309C116.34 35.7309 116.722 35.5842 116.971 35.2909C117.228 34.9902 117.356 34.5319 117.356 33.9159V28.9879H114.518V28.4819H117.917V33.9159C117.917 34.6859 117.741 35.2652 117.389 35.6539C117.037 36.0426 116.516 36.2369 115.827 36.2369ZM123.551 36.2369C122.576 36.2369 121.817 35.9546 121.274 35.3899C120.739 34.8252 120.471 34.0002 120.471 32.9149V28.4819H121.032V32.8929C121.032 33.8389 121.249 34.5466 121.681 35.0159C122.114 35.4852 122.741 35.7199 123.562 35.7199C124.376 35.7199 125 35.4852 125.432 35.0159C125.865 34.5466 126.081 33.8389 126.081 32.8929V28.4819H126.642V32.9149C126.642 34.0002 126.371 34.8252 125.828 35.3899C125.286 35.9546 124.527 36.2369 123.551 36.2369ZM134.606 36.1819L132.769 33.6079C132.498 33.6446 132.248 33.6629 132.021 33.6629H129.821V36.1819H129.26V28.4819H132.021C132.989 28.4819 133.748 28.7129 134.298 29.1749C134.848 29.6296 135.123 30.2639 135.123 31.0779C135.123 31.6866 134.965 32.1999 134.65 32.6179C134.342 33.0286 133.898 33.3182 133.319 33.4869L135.244 36.1819H134.606ZM132.021 33.1679C132.842 33.1679 133.469 32.9882 133.902 32.6289C134.335 32.2622 134.551 31.7452 134.551 31.0779C134.551 30.4106 134.335 29.8972 133.902 29.5379C133.469 29.1712 132.842 28.9879 132.021 28.9879H129.821V33.1679H132.021ZM137.177 28.4819H137.738V36.1819H137.177V28.4819ZM138.365 26.5569H139.157L137.43 27.8549H136.836L138.365 26.5569ZM140.421 28.4819H143.468C144.268 28.4819 144.975 28.6469 145.591 28.9769C146.215 29.3069 146.699 29.7652 147.043 30.3519C147.388 30.9312 147.56 31.5912 147.56 32.3319C147.56 33.0726 147.388 33.7362 147.043 34.3229C146.699 34.9022 146.215 35.3569 145.591 35.6869C144.975 36.0169 144.268 36.1819 143.468 36.1819H140.421V28.4819ZM143.424 35.6759C144.136 35.6759 144.763 35.5366 145.305 35.2579C145.848 34.9719 146.266 34.5759 146.559 34.0699C146.853 33.5639 146.999 32.9846 146.999 32.3319C146.999 31.6792 146.853 31.0999 146.559 30.5939C146.266 30.0879 145.848 29.6956 145.305 29.4169C144.763 29.1309 144.136 28.9879 143.424 28.9879H140.982V35.6759H143.424ZM149.509 28.4819H150.07V36.1819H149.509V28.4819ZM156.009 36.2369C155.254 36.2369 154.572 36.0682 153.963 35.7309C153.362 35.3936 152.885 34.9279 152.533 34.3339C152.189 33.7399 152.016 33.0726 152.016 32.3319C152.016 31.5912 152.189 30.9239 152.533 30.3299C152.885 29.7359 153.362 29.2702 153.963 28.9329C154.572 28.5956 155.254 28.4269 156.009 28.4269C156.567 28.4269 157.08 28.5186 157.549 28.7019C158.019 28.8779 158.418 29.1419 158.748 29.4939L158.396 29.8569C157.78 29.2482 156.992 28.9439 156.031 28.9439C155.386 28.9439 154.799 29.0906 154.271 29.3839C153.743 29.6772 153.329 30.0842 153.028 30.6049C152.728 31.1182 152.577 31.6939 152.577 32.3319C152.577 32.9699 152.728 33.5492 153.028 34.0699C153.329 34.5832 153.743 34.9866 154.271 35.2799C154.799 35.5732 155.386 35.7199 156.031 35.7199C156.985 35.7199 157.773 35.4119 158.396 34.7959L158.748 35.1589C158.418 35.5109 158.015 35.7786 157.538 35.9619C157.069 36.1452 156.559 36.2369 156.009 36.2369ZM163.733 36.2369C162.978 36.2369 162.296 36.0682 161.687 35.7309C161.078 35.3862 160.598 34.9169 160.246 34.3229C159.901 33.7289 159.729 33.0652 159.729 32.3319C159.729 31.5986 159.901 30.9349 160.246 30.3409C160.598 29.7469 161.078 29.2812 161.687 28.9439C162.296 28.5992 162.978 28.4269 163.733 28.4269C164.488 28.4269 165.17 28.5956 165.779 28.9329C166.388 29.2702 166.864 29.7359 167.209 30.3299C167.561 30.9239 167.737 31.5912 167.737 32.3319C167.737 33.0726 167.561 33.7399 167.209 34.3339C166.864 34.9279 166.388 35.3936 165.779 35.7309C165.17 36.0682 164.488 36.2369 163.733 36.2369ZM163.733 35.7199C164.378 35.7199 164.961 35.5732 165.482 35.2799C166.003 34.9866 166.413 34.5832 166.714 34.0699C167.015 33.5492 167.165 32.9699 167.165 32.3319C167.165 31.6939 167.015 31.1182 166.714 30.6049C166.413 30.0842 166.003 29.6772 165.482 29.3839C164.961 29.0906 164.378 28.9439 163.733 28.9439C163.088 28.9439 162.501 29.0906 161.973 29.3839C161.452 29.6772 161.042 30.0842 160.741 30.6049C160.44 31.1182 160.29 31.6939 160.29 32.3319C160.29 32.9699 160.44 33.5492 160.741 34.0699C161.042 34.5832 161.452 34.9866 161.973 35.2799C162.501 35.5732 163.088 35.7199 163.733 35.7199ZM171.707 36.2369C171.142 36.2369 170.603 36.1416 170.09 35.9509C169.584 35.7529 169.188 35.4999 168.902 35.1919L169.155 34.7739C169.426 35.0599 169.789 35.2946 170.244 35.4779C170.706 35.6539 171.19 35.7419 171.696 35.7419C172.429 35.7419 172.983 35.6026 173.357 35.3239C173.731 35.0452 173.918 34.6822 173.918 34.2349C173.918 33.8902 173.819 33.6152 173.621 33.4099C173.423 33.2046 173.177 33.0469 172.884 32.9369C172.591 32.8269 172.195 32.7132 171.696 32.5959C171.131 32.4566 170.677 32.3209 170.332 32.1889C169.995 32.0569 169.705 31.8552 169.463 31.5839C169.228 31.3052 169.111 30.9349 169.111 30.4729C169.111 30.0989 169.21 29.7579 169.408 29.4499C169.606 29.1346 169.907 28.8852 170.31 28.7019C170.721 28.5186 171.23 28.4269 171.839 28.4269C172.264 28.4269 172.682 28.4892 173.093 28.6139C173.504 28.7386 173.859 28.9072 174.16 29.1199L173.951 29.5709C173.643 29.3582 173.302 29.1969 172.928 29.0869C172.561 28.9769 172.198 28.9219 171.839 28.9219C171.128 28.9219 170.589 29.0649 170.222 29.3509C169.855 29.6369 169.672 30.0072 169.672 30.4619C169.672 30.8066 169.771 31.0816 169.969 31.2869C170.167 31.4922 170.413 31.6499 170.706 31.7599C170.999 31.8699 171.399 31.9872 171.905 32.1119C172.47 32.2512 172.921 32.3869 173.258 32.5189C173.595 32.6509 173.881 32.8526 174.116 33.1239C174.358 33.3879 174.479 33.7472 174.479 34.2019C174.479 34.5759 174.376 34.9169 174.171 35.2249C173.973 35.5329 173.665 35.7786 173.247 35.9619C172.829 36.1452 172.316 36.2369 171.707 36.2369Z" fill="white"/>
<path d="M58.6366 35.6759V36.1819H53.3236V28.4819H58.4716V28.9879H53.8846V32.0239H57.9876V32.5189H53.8846V35.6759H58.6366ZM65.4143 36.1819L62.7633 32.6179L60.1233 36.1819H59.4633L62.4223 32.2109L59.6723 28.4819H60.3323L62.7853 31.7929L65.2383 28.4819H65.8653L63.1153 32.1999L66.0743 36.1819H65.4143ZM70.1353 28.4819C71.1033 28.4819 71.8623 28.7129 72.4123 29.1749C72.9623 29.6296 73.2373 30.2639 73.2373 31.0779C73.2373 31.8846 72.9623 32.5189 72.4123 32.9809C71.8623 33.4356 71.1033 33.6629 70.1353 33.6629H67.9353V36.1819H67.3743V28.4819H70.1353ZM70.1353 33.1569C70.9567 33.1569 71.5837 32.9772 72.0163 32.6179C72.449 32.2586 72.6653 31.7452 72.6653 31.0779C72.6653 30.4106 72.449 29.8972 72.0163 29.5379C71.5837 29.1712 70.9567 28.9879 70.1353 28.9879H67.9353V33.1569H70.1353ZM80.4432 35.6759V36.1819H75.1302V28.4819H80.2782V28.9879H75.6912V32.0239H79.7942V32.5189H75.6912V35.6759H80.4432ZM87.8346 36.1819L85.9976 33.6079C85.7263 33.6446 85.4769 33.6629 85.2496 33.6629H83.0496V36.1819H82.4886V28.4819H85.2496C86.2176 28.4819 86.9766 28.7129 87.5266 29.1749C88.0766 29.6296 88.3516 30.2639 88.3516 31.0779C88.3516 31.6866 88.1939 32.1999 87.8786 32.6179C87.5706 33.0286 87.1269 33.3182 86.5476 33.4869L88.4726 36.1819H87.8346ZM85.2496 33.1679C86.0709 33.1679 86.6979 32.9882 87.1306 32.6289C87.5633 32.2622 87.7796 31.7452 87.7796 31.0779C87.7796 30.4106 87.5633 29.8972 87.1306 29.5379C86.6979 29.1712 86.0709 28.9879 85.2496 28.9879H83.0496V33.1679H85.2496ZM91.7722 28.9879H89.0002V28.4819H95.1052V28.9879H92.3332V36.1819H91.7722V28.9879ZM99.656 36.2369C98.9007 36.2369 98.2187 36.0682 97.61 35.7309C97.0013 35.3862 96.521 34.9169 96.169 34.3229C95.8243 33.7289 95.652 33.0652 95.652 32.3319C95.652 31.5986 95.8243 30.9349 96.169 30.3409C96.521 29.7469 97.0013 29.2812 97.61 28.9439C98.2187 28.5992 98.9007 28.4269 99.656 28.4269C100.411 28.4269 101.093 28.5956 101.702 28.9329C102.311 29.2702 102.787 29.7359 103.132 30.3299C103.484 30.9239 103.66 31.5912 103.66 32.3319C103.66 33.0726 103.484 33.7399 103.132 34.3339C102.787 34.9279 102.311 35.3936 101.702 35.7309C101.093 36.0682 100.411 36.2369 99.656 36.2369ZM99.656 35.7199C100.301 35.7199 100.884 35.5732 101.405 35.2799C101.926 34.9866 102.336 34.5832 102.637 34.0699C102.938 33.5492 103.088 32.9699 103.088 32.3319C103.088 31.6939 102.938 31.1182 102.637 30.6049C102.336 30.0842 101.926 29.6772 101.405 29.3839C100.884 29.0906 100.301 28.9439 99.656 28.9439C99.0107 28.9439 98.424 29.0906 97.896 29.3839C97.3753 29.6772 96.9647 30.0842 96.664 30.6049C96.3633 31.1182 96.213 31.6939 96.213 32.3319C96.213 32.9699 96.3633 33.5492 96.664 34.0699C96.9647 34.5832 97.3753 34.9866 97.896 35.2799C98.424 35.5732 99.0107 35.7199 99.656 35.7199ZM107.63 36.2369C107.065 36.2369 106.526 36.1416 106.013 35.9509C105.507 35.7529 105.111 35.4999 104.825 35.1919L105.078 34.7739C105.349 35.0599 105.712 35.2946 106.167 35.4779C106.629 35.6539 107.113 35.7419 107.619 35.7419C108.352 35.7419 108.906 35.6026 109.28 35.3239C109.654 35.0452 109.841 34.6822 109.841 34.2349C109.841 33.8902 109.742 33.6152 109.544 33.4099C109.346 33.2046 109.1 33.0469 108.807 32.9369C108.513 32.8269 108.117 32.7132 107.619 32.5959C107.054 32.4566 106.599 32.3209 106.255 32.1889C105.917 32.0569 105.628 31.8552 105.386 31.5839C105.151 31.3052 105.034 30.9349 105.034 30.4729C105.034 30.0989 105.133 29.7579 105.331 29.4499C105.529 29.1346 105.829 28.8852 106.233 28.7019C106.643 28.5186 107.153 28.4269 107.762 28.4269C108.187 28.4269 108.605 28.4892 109.016 28.6139C109.426 28.7386 109.782 28.9072 110.083 29.1199L109.874 29.5709C109.566 29.3582 109.225 29.1969 108.851 29.0869C108.484 28.9769 108.121 28.9219 107.762 28.9219C107.05 28.9219 106.511 29.0649 106.145 29.3509C105.778 29.6369 105.595 30.0072 105.595 30.4619C105.595 30.8066 105.694 31.0816 105.892 31.2869C106.09 31.4922 106.335 31.6499 106.629 31.7599C106.922 31.8699 107.322 31.9872 107.828 32.1119C108.392 32.2512 108.843 32.3869 109.181 32.5189C109.518 32.6509 109.804 32.8526 110.039 33.1239C110.281 33.3879 110.402 33.7472 110.402 34.2019C110.402 34.5759 110.299 34.9169 110.094 35.2249C109.896 35.5329 109.588 35.7786 109.17 35.9619C108.752 36.1452 108.238 36.2369 107.63 36.2369ZM115.827 36.2369C115.409 36.2369 115.017 36.1416 114.65 35.9509C114.291 35.7529 114.001 35.4816 113.781 35.1369L114.122 34.7629C114.335 35.0782 114.584 35.3202 114.87 35.4889C115.163 35.6502 115.482 35.7309 115.827 35.7309C116.34 35.7309 116.722 35.5842 116.971 35.2909C117.228 34.9902 117.356 34.5319 117.356 33.9159V28.9879H114.518V28.4819H117.917V33.9159C117.917 34.6859 117.741 35.2652 117.389 35.6539C117.037 36.0426 116.516 36.2369 115.827 36.2369ZM123.551 36.2369C122.576 36.2369 121.817 35.9546 121.274 35.3899C120.739 34.8252 120.471 34.0002 120.471 32.9149V28.4819H121.032V32.8929C121.032 33.8389 121.249 34.5466 121.681 35.0159C122.114 35.4852 122.741 35.7199 123.562 35.7199C124.376 35.7199 125 35.4852 125.432 35.0159C125.865 34.5466 126.081 33.8389 126.081 32.8929V28.4819H126.642V32.9149C126.642 34.0002 126.371 34.8252 125.828 35.3899C125.286 35.9546 124.527 36.2369 123.551 36.2369ZM134.606 36.1819L132.769 33.6079C132.498 33.6446 132.248 33.6629 132.021 33.6629H129.821V36.1819H129.26V28.4819H132.021C132.989 28.4819 133.748 28.7129 134.298 29.1749C134.848 29.6296 135.123 30.2639 135.123 31.0779C135.123 31.6866 134.965 32.1999 134.65 32.6179C134.342 33.0286 133.898 33.3182 133.319 33.4869L135.244 36.1819H134.606ZM132.021 33.1679C132.842 33.1679 133.469 32.9882 133.902 32.6289C134.335 32.2622 134.551 31.7452 134.551 31.0779C134.551 30.4106 134.335 29.8972 133.902 29.5379C133.469 29.1712 132.842 28.9879 132.021 28.9879H129.821V33.1679H132.021ZM137.177 28.4819H137.738V36.1819H137.177V28.4819ZM138.365 26.5569H139.157L137.43 27.8549H136.836L138.365 26.5569ZM140.421 28.4819H143.468C144.268 28.4819 144.975 28.6469 145.591 28.9769C146.215 29.3069 146.699 29.7652 147.043 30.3519C147.388 30.9312 147.56 31.5912 147.56 32.3319C147.56 33.0726 147.388 33.7362 147.043 34.3229C146.699 34.9022 146.215 35.3569 145.591 35.6869C144.975 36.0169 144.268 36.1819 143.468 36.1819H140.421V28.4819ZM143.424 35.6759C144.136 35.6759 144.763 35.5366 145.305 35.2579C145.848 34.9719 146.266 34.5759 146.559 34.0699C146.853 33.5639 146.999 32.9846 146.999 32.3319C146.999 31.6792 146.853 31.0999 146.559 30.5939C146.266 30.0879 145.848 29.6956 145.305 29.4169C144.763 29.1309 144.136 28.9879 143.424 28.9879H140.982V35.6759H143.424ZM149.509 28.4819H150.07V36.1819H149.509V28.4819ZM156.009 36.2369C155.254 36.2369 154.572 36.0682 153.963 35.7309C153.362 35.3936 152.885 34.9279 152.533 34.3339C152.189 33.7399 152.016 33.0726 152.016 32.3319C152.016 31.5912 152.189 30.9239 152.533 30.3299C152.885 29.7359 153.362 29.2702 153.963 28.9329C154.572 28.5956 155.254 28.4269 156.009 28.4269C156.567 28.4269 157.08 28.5186 157.549 28.7019C158.019 28.8779 158.418 29.1419 158.748 29.4939L158.396 29.8569C157.78 29.2482 156.992 28.9439 156.031 28.9439C155.386 28.9439 154.799 29.0906 154.271 29.3839C153.743 29.6772 153.329 30.0842 153.028 30.6049C152.728 31.1182 152.577 31.6939 152.577 32.3319C152.577 32.9699 152.728 33.5492 153.028 34.0699C153.329 34.5832 153.743 34.9866 154.271 35.2799C154.799 35.5732 155.386 35.7199 156.031 35.7199C156.985 35.7199 157.773 35.4119 158.396 34.7959L158.748 35.1589C158.418 35.5109 158.015 35.7786 157.538 35.9619C157.069 36.1452 156.559 36.2369 156.009 36.2369ZM163.733 36.2369C162.978 36.2369 162.296 36.0682 161.687 35.7309C161.078 35.3862 160.598 34.9169 160.246 34.3229C159.901 33.7289 159.729 33.0652 159.729 32.3319C159.729 31.5986 159.901 30.9349 160.246 30.3409C160.598 29.7469 161.078 29.2812 161.687 28.9439C162.296 28.5992 162.978 28.4269 163.733 28.4269C164.488 28.4269 165.17 28.5956 165.779 28.9329C166.388 29.2702 166.864 29.7359 167.209 30.3299C167.561 30.9239 167.737 31.5912 167.737 32.3319C167.737 33.0726 167.561 33.7399 167.209 34.3339C166.864 34.9279 166.388 35.3936 165.779 35.7309C165.17 36.0682 164.488 36.2369 163.733 36.2369ZM163.733 35.7199C164.378 35.7199 164.961 35.5732 165.482 35.2799C166.003 34.9866 166.413 34.5832 166.714 34.0699C167.015 33.5492 167.165 32.9699 167.165 32.3319C167.165 31.6939 167.015 31.1182 166.714 30.6049C166.413 30.0842 166.003 29.6772 165.482 29.3839C164.961 29.0906 164.378 28.9439 163.733 28.9439C163.088 28.9439 162.501 29.0906 161.973 29.3839C161.452 29.6772 161.042 30.0842 160.741 30.6049C160.44 31.1182 160.29 31.6939 160.29 32.3319C160.29 32.9699 160.44 33.5492 160.741 34.0699C161.042 34.5832 161.452 34.9866 161.973 35.2799C162.501 35.5732 163.088 35.7199 163.733 35.7199ZM171.707 36.2369C171.142 36.2369 170.603 36.1416 170.09 35.9509C169.584 35.7529 169.188 35.4999 168.902 35.1919L169.155 34.7739C169.426 35.0599 169.789 35.2946 170.244 35.4779C170.706 35.6539 171.19 35.7419 171.696 35.7419C172.429 35.7419 172.983 35.6026 173.357 35.3239C173.731 35.0452 173.918 34.6822 173.918 34.2349C173.918 33.8902 173.819 33.6152 173.621 33.4099C173.423 33.2046 173.177 33.0469 172.884 32.9369C172.591 32.8269 172.195 32.7132 171.696 32.5959C171.131 32.4566 170.677 32.3209 170.332 32.1889C169.995 32.0569 169.705 31.8552 169.463 31.5839C169.228 31.3052 169.111 30.9349 169.111 30.4729C169.111 30.0989 169.21 29.7579 169.408 29.4499C169.606 29.1346 169.907 28.8852 170.31 28.7019C170.721 28.5186 171.23 28.4269 171.839 28.4269C172.264 28.4269 172.682 28.4892 173.093 28.6139C173.504 28.7386 173.859 28.9072 174.16 29.1199L173.951 29.5709C173.643 29.3582 173.302 29.1969 172.928 29.0869C172.561 28.9769 172.198 28.9219 171.839 28.9219C171.128 28.9219 170.589 29.0649 170.222 29.3509C169.855 29.6369 169.672 30.0072 169.672 30.4619C169.672 30.8066 169.771 31.0816 169.969 31.2869C170.167 31.4922 170.413 31.6499 170.706 31.7599C170.999 31.8699 171.399 31.9872 171.905 32.1119C172.47 32.2512 172.921 32.3869 173.258 32.5189C173.595 32.6509 173.881 32.8526 174.116 33.1239C174.358 33.3879 174.479 33.7472 174.479 34.2019C174.479 34.5759 174.376 34.9169 174.171 35.2249C173.973 35.5329 173.665 35.7786 173.247 35.9619C172.829 36.1452 172.316 36.2369 171.707 36.2369Z" fill="white"/>
</svg>
