<svg width="492" height="100" viewBox="0 0 492 100" fill="none" xmlns="http://www.w3.org/2000/svg">
<rect width="141" height="9" fill="white"/>
<rect y="91" width="141" height="9" fill="white"/>
<rect x="15" y="18" width="15" height="64" fill="white"/>
<rect x="47" y="18" width="15" height="64" fill="white"/>
<rect x="79" y="18" width="15" height="64" fill="white"/>
<rect x="111" y="18" width="15" height="64" fill="white"/>
<path d="M186.565 44.432C184.573 44.432 182.641 44.168 180.769 43.64C178.921 43.088 177.433 42.38 176.305 41.516L178.285 37.124C179.365 37.916 180.649 38.552 182.137 39.032C183.625 39.512 185.113 39.752 186.601 39.752C188.257 39.752 189.481 39.512 190.273 39.032C191.065 38.528 191.461 37.868 191.461 37.052C191.461 36.452 191.221 35.96 190.741 35.576C190.285 35.168 189.685 34.844 188.941 34.604C188.221 34.364 187.237 34.1 185.989 33.812C184.069 33.356 182.497 32.9 181.273 32.444C180.049 31.988 178.993 31.256 178.105 30.248C177.241 29.24 176.809 27.896 176.809 26.216C176.809 24.752 177.205 23.432 177.997 22.256C178.789 21.056 179.977 20.108 181.561 19.412C183.169 18.716 185.125 18.368 187.429 18.368C189.037 18.368 190.609 18.56 192.145 18.944C193.681 19.328 195.025 19.88 196.177 20.6L194.377 25.028C192.049 23.708 189.721 23.048 187.393 23.048C185.761 23.048 184.549 23.312 183.757 23.84C182.989 24.368 182.605 25.064 182.605 25.928C182.605 26.792 183.049 27.44 183.937 27.872C184.849 28.28 186.229 28.688 188.077 29.096C189.997 29.552 191.569 30.008 192.793 30.464C194.017 30.92 195.061 31.64 195.925 32.624C196.813 33.608 197.257 34.94 197.257 36.62C197.257 38.06 196.849 39.38 196.033 40.58C195.241 41.756 194.041 42.692 192.433 43.388C190.825 44.084 188.869 44.432 186.565 44.432ZM201.242 18.8H207.074V44H201.242V18.8ZM229.65 38.6H217.95L215.718 44H209.742L220.974 18.8H226.734L238.002 44H231.882L229.65 38.6ZM227.814 34.172L223.818 24.524L219.822 34.172H227.814ZM245.788 44.432C244.084 44.432 242.512 44.12 241.072 43.496C239.656 42.848 238.492 41.936 237.58 40.76L240.82 36.872C242.188 38.72 243.748 39.644 245.5 39.644C247.876 39.644 249.064 38.252 249.064 35.468V23.48H240.208V18.8H254.86V35.144C254.86 38.24 254.092 40.568 252.556 42.128C251.02 43.664 248.764 44.432 245.788 44.432ZM287.412 38.6H275.712L273.48 44H267.504L278.736 18.8H284.496L295.764 44H289.644L287.412 38.6ZM285.576 34.172L281.58 24.524L277.584 34.172H285.576ZM316.883 30.896C318.323 31.352 319.451 32.12 320.267 33.2C321.083 34.256 321.491 35.564 321.491 37.124C321.491 39.332 320.627 41.036 318.899 42.236C317.195 43.412 314.699 44 311.411 44H298.379V18.8H310.691C313.763 18.8 316.115 19.388 317.747 20.564C319.403 21.74 320.231 23.336 320.231 25.352C320.231 26.576 319.931 27.668 319.331 28.628C318.755 29.588 317.939 30.344 316.883 30.896ZM304.175 23.192V29.132H309.971C311.411 29.132 312.503 28.88 313.247 28.376C313.991 27.872 314.363 27.128 314.363 26.144C314.363 25.16 313.991 24.428 313.247 23.948C312.503 23.444 311.411 23.192 309.971 23.192H304.175ZM310.979 39.608C312.515 39.608 313.667 39.356 314.435 38.852C315.227 38.348 315.623 37.568 315.623 36.512C315.623 34.424 314.075 33.38 310.979 33.38H304.175V39.608H310.979ZM338.11 44.432C335.494 44.432 333.13 43.868 331.018 42.74C328.93 41.612 327.286 40.064 326.086 38.096C324.91 36.104 324.322 33.872 324.322 31.4C324.322 28.928 324.91 26.708 326.086 24.74C327.286 22.748 328.93 21.188 331.018 20.06C333.13 18.932 335.494 18.368 338.11 18.368C340.726 18.368 343.078 18.932 345.166 20.06C347.254 21.188 348.898 22.748 350.098 24.74C351.298 26.708 351.898 28.928 351.898 31.4C351.898 33.872 351.298 36.104 350.098 38.096C348.898 40.064 347.254 41.612 345.166 42.74C343.078 43.868 340.726 44.432 338.11 44.432ZM338.11 39.464C339.598 39.464 340.942 39.128 342.142 38.456C343.342 37.76 344.278 36.8 344.95 35.576C345.646 34.352 345.994 32.96 345.994 31.4C345.994 29.84 345.646 28.448 344.95 27.224C344.278 26 343.342 25.052 342.142 24.38C340.942 23.684 339.598 23.336 338.11 23.336C336.622 23.336 335.278 23.684 334.078 24.38C332.878 25.052 331.93 26 331.234 27.224C330.562 28.448 330.226 29.84 330.226 31.4C330.226 32.96 330.562 34.352 331.234 35.576C331.93 36.8 332.878 37.76 334.078 38.456C335.278 39.128 336.622 39.464 338.11 39.464ZM373.309 31.004H378.637V41.228C377.269 42.26 375.685 43.052 373.885 43.604C372.085 44.156 370.273 44.432 368.449 44.432C365.833 44.432 363.481 43.88 361.393 42.776C359.305 41.648 357.661 40.1 356.461 38.132C355.285 36.14 354.697 33.896 354.697 31.4C354.697 28.904 355.285 26.672 356.461 24.704C357.661 22.712 359.317 21.164 361.429 20.06C363.541 18.932 365.917 18.368 368.557 18.368C370.765 18.368 372.769 18.74 374.569 19.484C376.369 20.228 377.881 21.308 379.105 22.724L375.361 26.18C373.561 24.284 371.389 23.336 368.845 23.336C367.237 23.336 365.809 23.672 364.561 24.344C363.313 25.016 362.341 25.964 361.645 27.188C360.949 28.412 360.601 29.816 360.601 31.4C360.601 32.96 360.949 34.352 361.645 35.576C362.341 36.8 363.301 37.76 364.525 38.456C365.773 39.128 367.189 39.464 368.773 39.464C370.453 39.464 371.965 39.104 373.309 38.384V31.004ZM400.65 38.6H388.95L386.718 44H380.742L391.974 18.8H397.734L409.002 44H402.882L400.65 38.6ZM398.814 34.172L394.818 24.524L390.822 34.172H398.814ZM411.617 18.8H423.065C425.801 18.8 428.213 19.328 430.301 20.384C432.413 21.416 434.045 22.88 435.197 24.776C436.373 26.672 436.961 28.88 436.961 31.4C436.961 33.92 436.373 36.128 435.197 38.024C434.045 39.92 432.413 41.396 430.301 42.452C428.213 43.484 425.801 44 423.065 44H411.617V18.8ZM422.777 39.212C425.297 39.212 427.301 38.516 428.789 37.124C430.301 35.708 431.057 33.8 431.057 31.4C431.057 29 430.301 27.104 428.789 25.712C427.301 24.296 425.297 23.588 422.777 23.588H417.449V39.212H422.777ZM453.563 44.432C450.947 44.432 448.583 43.868 446.471 42.74C444.383 41.612 442.739 40.064 441.539 38.096C440.363 36.104 439.775 33.872 439.775 31.4C439.775 28.928 440.363 26.708 441.539 24.74C442.739 22.748 444.383 21.188 446.471 20.06C448.583 18.932 450.947 18.368 453.563 18.368C456.179 18.368 458.531 18.932 460.619 20.06C462.707 21.188 464.351 22.748 465.551 24.74C466.751 26.708 467.351 28.928 467.351 31.4C467.351 33.872 466.751 36.104 465.551 38.096C464.351 40.064 462.707 41.612 460.619 42.74C458.531 43.868 456.179 44.432 453.563 44.432ZM453.563 39.464C455.051 39.464 456.395 39.128 457.595 38.456C458.795 37.76 459.731 36.8 460.403 35.576C461.099 34.352 461.447 32.96 461.447 31.4C461.447 29.84 461.099 28.448 460.403 27.224C459.731 26 458.795 25.052 457.595 24.38C456.395 23.684 455.051 23.336 453.563 23.336C452.075 23.336 450.731 23.684 449.531 24.38C448.331 25.052 447.383 26 446.687 27.224C446.015 28.448 445.679 29.84 445.679 31.4C445.679 32.96 446.015 34.352 446.687 35.576C447.383 36.8 448.331 37.76 449.531 38.456C450.731 39.128 452.075 39.464 453.563 39.464ZM480.014 44.432C478.022 44.432 476.09 44.168 474.218 43.64C472.37 43.088 470.882 42.38 469.754 41.516L471.734 37.124C472.814 37.916 474.098 38.552 475.586 39.032C477.074 39.512 478.562 39.752 480.05 39.752C481.706 39.752 482.93 39.512 483.722 39.032C484.514 38.528 484.91 37.868 484.91 37.052C484.91 36.452 484.67 35.96 484.19 35.576C483.734 35.168 483.134 34.844 482.39 34.604C481.67 34.364 480.686 34.1 479.438 33.812C477.518 33.356 475.946 32.9 474.722 32.444C473.498 31.988 472.442 31.256 471.554 30.248C470.69 29.24 470.258 27.896 470.258 26.216C470.258 24.752 470.654 23.432 471.446 22.256C472.238 21.056 473.426 20.108 475.01 19.412C476.618 18.716 478.574 18.368 480.878 18.368C482.486 18.368 484.058 18.56 485.594 18.944C487.13 19.328 488.474 19.88 489.626 20.6L487.826 25.028C485.498 23.708 483.17 23.048 480.842 23.048C479.21 23.048 477.998 23.312 477.206 23.84C476.438 24.368 476.054 25.064 476.054 25.928C476.054 26.792 476.498 27.44 477.386 27.872C478.298 28.28 479.678 28.688 481.526 29.096C483.446 29.552 485.018 30.008 486.242 30.464C487.466 30.92 488.51 31.64 489.374 32.624C490.262 33.608 490.706 34.94 490.706 36.62C490.706 38.06 490.298 39.38 489.482 40.58C488.69 41.756 487.49 42.692 485.882 43.388C484.274 44.084 482.318 44.432 480.014 44.432Z" fill="white"/>
<path d="M237.203 89.172V90H228.509V77.4H236.933V78.228H229.427V83.196H236.141V84.006H229.427V89.172H237.203ZM248.293 90L243.955 84.168L239.635 90H238.555L243.397 83.502L238.897 77.4H239.977L243.991 82.818L248.005 77.4H249.031L244.531 83.484L249.373 90H248.293ZM256.019 77.4C257.603 77.4 258.845 77.778 259.745 78.534C260.645 79.278 261.095 80.316 261.095 81.648C261.095 82.968 260.645 84.006 259.745 84.762C258.845 85.506 257.603 85.878 256.019 85.878H252.419V90H251.501V77.4H256.019ZM256.019 85.05C257.363 85.05 258.389 84.756 259.097 84.168C259.805 83.58 260.159 82.74 260.159 81.648C260.159 80.556 259.805 79.716 259.097 79.128C258.389 78.528 257.363 78.228 256.019 78.228H252.419V85.05H256.019ZM272.886 89.172V90H264.192V77.4H272.616V78.228H265.11V83.196H271.824V84.006H265.11V89.172H272.886ZM284.981 90L281.975 85.788C281.531 85.848 281.123 85.878 280.751 85.878H277.151V90H276.233V77.4H280.751C282.335 77.4 283.577 77.778 284.477 78.534C285.377 79.278 285.827 80.316 285.827 81.648C285.827 82.644 285.569 83.484 285.053 84.168C284.549 84.84 283.823 85.314 282.875 85.59L286.025 90H284.981ZM280.751 85.068C282.095 85.068 283.121 84.774 283.829 84.186C284.537 83.586 284.891 82.74 284.891 81.648C284.891 80.556 284.537 79.716 283.829 79.128C283.121 78.528 282.095 78.228 280.751 78.228H277.151V85.068H280.751ZM291.424 78.228H286.888V77.4H296.878V78.228H292.342V90H291.424V78.228ZM304.325 90.09C303.089 90.09 301.973 89.814 300.977 89.262C299.981 88.698 299.195 87.93 298.619 86.958C298.055 85.986 297.773 84.9 297.773 83.7C297.773 82.5 298.055 81.414 298.619 80.442C299.195 79.47 299.981 78.708 300.977 78.156C301.973 77.592 303.089 77.31 304.325 77.31C305.561 77.31 306.677 77.586 307.673 78.138C308.669 78.69 309.449 79.452 310.013 80.424C310.589 81.396 310.877 82.488 310.877 83.7C310.877 84.912 310.589 86.004 310.013 86.976C309.449 87.948 308.669 88.71 307.673 89.262C306.677 89.814 305.561 90.09 304.325 90.09ZM304.325 89.244C305.381 89.244 306.335 89.004 307.187 88.524C308.039 88.044 308.711 87.384 309.203 86.544C309.695 85.692 309.941 84.744 309.941 83.7C309.941 82.656 309.695 81.714 309.203 80.874C308.711 80.022 308.039 79.356 307.187 78.876C306.335 78.396 305.381 78.156 304.325 78.156C303.269 78.156 302.309 78.396 301.445 78.876C300.593 79.356 299.921 80.022 299.429 80.874C298.937 81.714 298.691 82.656 298.691 83.7C298.691 84.744 298.937 85.692 299.429 86.544C299.921 87.384 300.593 88.044 301.445 88.524C302.309 89.004 303.269 89.244 304.325 89.244ZM317.373 90.09C316.449 90.09 315.567 89.934 314.727 89.622C313.899 89.298 313.251 88.884 312.783 88.38L313.197 87.696C313.641 88.164 314.235 88.548 314.979 88.848C315.735 89.136 316.527 89.28 317.355 89.28C318.555 89.28 319.461 89.052 320.073 88.596C320.685 88.14 320.991 87.546 320.991 86.814C320.991 86.25 320.829 85.8 320.505 85.464C320.181 85.128 319.779 84.87 319.299 84.69C318.819 84.51 318.171 84.324 317.355 84.132C316.431 83.904 315.687 83.682 315.123 83.466C314.571 83.25 314.097 82.92 313.701 82.476C313.317 82.02 313.125 81.414 313.125 80.658C313.125 80.046 313.287 79.488 313.611 78.984C313.935 78.468 314.427 78.06 315.087 77.76C315.759 77.46 316.593 77.31 317.589 77.31C318.285 77.31 318.969 77.412 319.641 77.616C320.313 77.82 320.895 78.096 321.387 78.444L321.045 79.182C320.541 78.834 319.983 78.57 319.371 78.39C318.771 78.21 318.177 78.12 317.589 78.12C316.425 78.12 315.543 78.354 314.943 78.822C314.343 79.29 314.043 79.896 314.043 80.64C314.043 81.204 314.205 81.654 314.529 81.99C314.853 82.326 315.255 82.584 315.735 82.764C316.215 82.944 316.869 83.136 317.697 83.34C318.621 83.568 319.359 83.79 319.911 84.006C320.463 84.222 320.931 84.552 321.315 84.996C321.711 85.428 321.909 86.016 321.909 86.76C321.909 87.372 321.741 87.93 321.405 88.434C321.081 88.938 320.577 89.34 319.893 89.64C319.209 89.94 318.369 90.09 317.373 90.09ZM330.787 90.09C330.103 90.09 329.461 89.934 328.861 89.622C328.273 89.298 327.799 88.854 327.439 88.29L327.997 87.678C328.345 88.194 328.753 88.59 329.221 88.866C329.701 89.13 330.223 89.262 330.787 89.262C331.627 89.262 332.251 89.022 332.659 88.542C333.079 88.05 333.289 87.3 333.289 86.292V78.228H328.645V77.4H334.207V86.292C334.207 87.552 333.919 88.5 333.343 89.136C332.767 89.772 331.915 90.09 330.787 90.09ZM343.427 90.09C341.831 90.09 340.589 89.628 339.701 88.704C338.825 87.78 338.387 86.43 338.387 84.654V77.4H339.305V84.618C339.305 86.166 339.659 87.324 340.367 88.092C341.075 88.86 342.101 89.244 343.445 89.244C344.777 89.244 345.797 88.86 346.505 88.092C347.213 87.324 347.567 86.166 347.567 84.618V77.4H348.485V84.654C348.485 86.43 348.041 87.78 347.153 88.704C346.265 89.628 345.023 90.09 343.427 90.09ZM361.516 90L358.51 85.788C358.066 85.848 357.658 85.878 357.286 85.878H353.686V90H352.768V77.4H357.286C358.87 77.4 360.112 77.778 361.012 78.534C361.912 79.278 362.362 80.316 362.362 81.648C362.362 82.644 362.104 83.484 361.588 84.168C361.084 84.84 360.358 85.314 359.41 85.59L362.56 90H361.516ZM357.286 85.068C358.63 85.068 359.656 84.774 360.364 84.186C361.072 83.586 361.426 82.74 361.426 81.648C361.426 80.556 361.072 79.716 360.364 79.128C359.656 78.528 358.63 78.228 357.286 78.228H353.686V85.068H357.286ZM365.723 77.4H366.641V90H365.723V77.4ZM367.667 74.25H368.963L366.137 76.374H365.165L367.667 74.25ZM371.032 77.4H376.018C377.326 77.4 378.484 77.67 379.492 78.21C380.512 78.75 381.304 79.5 381.868 80.46C382.432 81.408 382.714 82.488 382.714 83.7C382.714 84.912 382.432 85.998 381.868 86.958C381.304 87.906 380.512 88.65 379.492 89.19C378.484 89.73 377.326 90 376.018 90H371.032V77.4ZM375.946 89.172C377.11 89.172 378.136 88.944 379.024 88.488C379.912 88.02 380.596 87.372 381.076 86.544C381.556 85.716 381.796 84.768 381.796 83.7C381.796 82.632 381.556 81.684 381.076 80.856C380.596 80.028 379.912 79.386 379.024 78.93C378.136 78.462 377.11 78.228 375.946 78.228H371.95V89.172H375.946ZM385.903 77.4H386.821V90H385.903V77.4ZM396.54 90.09C395.304 90.09 394.188 89.814 393.192 89.262C392.208 88.71 391.428 87.948 390.852 86.976C390.288 86.004 390.006 84.912 390.006 83.7C390.006 82.488 390.288 81.396 390.852 80.424C391.428 79.452 392.208 78.69 393.192 78.138C394.188 77.586 395.304 77.31 396.54 77.31C397.452 77.31 398.292 77.46 399.06 77.76C399.828 78.048 400.482 78.48 401.022 79.056L400.446 79.65C399.438 78.654 398.148 78.156 396.576 78.156C395.52 78.156 394.56 78.396 393.696 78.876C392.832 79.356 392.154 80.022 391.662 80.874C391.17 81.714 390.924 82.656 390.924 83.7C390.924 84.744 391.17 85.692 391.662 86.544C392.154 87.384 392.832 88.044 393.696 88.524C394.56 89.004 395.52 89.244 396.576 89.244C398.136 89.244 399.426 88.74 400.446 87.732L401.022 88.326C400.482 88.902 399.822 89.34 399.042 89.64C398.274 89.94 397.44 90.09 396.54 90.09ZM409.179 90.09C407.943 90.09 406.827 89.814 405.831 89.262C404.835 88.698 404.049 87.93 403.473 86.958C402.909 85.986 402.627 84.9 402.627 83.7C402.627 82.5 402.909 81.414 403.473 80.442C404.049 79.47 404.835 78.708 405.831 78.156C406.827 77.592 407.943 77.31 409.179 77.31C410.415 77.31 411.531 77.586 412.527 78.138C413.523 78.69 414.303 79.452 414.867 80.424C415.443 81.396 415.731 82.488 415.731 83.7C415.731 84.912 415.443 86.004 414.867 86.976C414.303 87.948 413.523 88.71 412.527 89.262C411.531 89.814 410.415 90.09 409.179 90.09ZM409.179 89.244C410.235 89.244 411.189 89.004 412.041 88.524C412.893 88.044 413.565 87.384 414.057 86.544C414.549 85.692 414.795 84.744 414.795 83.7C414.795 82.656 414.549 81.714 414.057 80.874C413.565 80.022 412.893 79.356 412.041 78.876C411.189 78.396 410.235 78.156 409.179 78.156C408.123 78.156 407.163 78.396 406.299 78.876C405.447 79.356 404.775 80.022 404.283 80.874C403.791 81.714 403.545 82.656 403.545 83.7C403.545 84.744 403.791 85.692 404.283 86.544C404.775 87.384 405.447 88.044 406.299 88.524C407.163 89.004 408.123 89.244 409.179 89.244ZM422.227 90.09C421.303 90.09 420.421 89.934 419.581 89.622C418.753 89.298 418.105 88.884 417.637 88.38L418.051 87.696C418.495 88.164 419.089 88.548 419.833 88.848C420.589 89.136 421.381 89.28 422.209 89.28C423.409 89.28 424.315 89.052 424.927 88.596C425.539 88.14 425.845 87.546 425.845 86.814C425.845 86.25 425.683 85.8 425.359 85.464C425.035 85.128 424.633 84.87 424.153 84.69C423.673 84.51 423.025 84.324 422.209 84.132C421.285 83.904 420.541 83.682 419.977 83.466C419.425 83.25 418.951 82.92 418.555 82.476C418.171 82.02 417.979 81.414 417.979 80.658C417.979 80.046 418.141 79.488 418.465 78.984C418.789 78.468 419.281 78.06 419.941 77.76C420.613 77.46 421.447 77.31 422.443 77.31C423.139 77.31 423.823 77.412 424.495 77.616C425.167 77.82 425.749 78.096 426.241 78.444L425.899 79.182C425.395 78.834 424.837 78.57 424.225 78.39C423.625 78.21 423.031 78.12 422.443 78.12C421.279 78.12 420.397 78.354 419.797 78.822C419.197 79.29 418.897 79.896 418.897 80.64C418.897 81.204 419.059 81.654 419.383 81.99C419.707 82.326 420.109 82.584 420.589 82.764C421.069 82.944 421.723 83.136 422.551 83.34C423.475 83.568 424.213 83.79 424.765 84.006C425.317 84.222 425.785 84.552 426.169 84.996C426.565 85.428 426.763 86.016 426.763 86.76C426.763 87.372 426.595 87.93 426.259 88.434C425.935 88.938 425.431 89.34 424.747 89.64C424.063 89.94 423.223 90.09 422.227 90.09Z" fill="white"/>
</svg>
